<svg width="72" height="72" viewBox="0 0 72 72" fill="none" xmlns="http://www.w3.org/2000/svg">
<rect width="72" height="72" rx="8" fill="#F3F6FF"/>
<g clip-path="url(#clip0_20005153_3432)">
<path d="M44.5205 25.6094C44.5187 25.6094 44.5168 25.6094 44.515 25.6094C44.0986 25.6094 43.6993 25.7756 43.4059 26.0713L34.4413 35.1058L31.086 31.7002C30.7948 31.4047 30.398 31.2371 29.9831 31.2344C29.9797 31.2344 29.9764 31.2344 29.973 31.2344C29.5617 31.2344 29.167 31.3966 28.8743 31.6859L22.8701 37.6234C22.2565 38.2302 22.251 39.2195 22.8577 39.833C23.1634 40.1421 23.5659 40.297 23.9688 40.2969C24.3657 40.2969 24.7629 40.1465 25.0674 39.8454L29.9586 35.0085L33.3245 38.4247C33.6175 38.7221 34.0173 38.8898 34.4348 38.8905C34.4357 38.8905 34.4366 38.8905 34.4375 38.8905C34.854 38.8905 35.2532 38.7243 35.5467 38.4286L44.5072 29.398L46.9144 31.8584C47.5181 32.4752 48.5073 32.4859 49.124 31.8824C49.7408 31.2789 49.7516 30.2897 49.1481 29.6728L45.6319 26.0791C45.3392 25.7801 44.9388 25.6109 44.5205 25.6094Z" fill="#D946EF"/>
<path d="M54.4375 34.9062C55.3005 34.9062 56 34.2067 56 33.3438V20.7656C56 19.9027 55.3005 19.2031 54.4375 19.2031H37.5625V17.5625C37.5625 16.6995 36.863 16 36 16C35.137 16 34.4375 16.6995 34.4375 17.5625V19.2031H17.5625C16.6995 19.2031 16 19.9027 16 20.7656V41.2344C16 44.6806 18.8038 47.4844 22.25 47.4844H34.4375V52.875H29.75C28.887 52.875 28.1875 53.5745 28.1875 54.4375C28.1875 55.3005 28.887 56 29.75 56H42.1719C43.0348 56 43.7344 55.3005 43.7344 54.4375C43.7344 53.5745 43.0348 52.875 42.1719 52.875H37.5625V47.4844H49.75C53.1963 47.4844 56 44.6806 56 41.2344C56 40.3714 55.3005 39.6719 54.4375 39.6719C53.5745 39.6719 52.875 40.3714 52.875 41.2344C52.875 42.9575 51.4731 44.3594 49.75 44.3594H22.25C20.5269 44.3594 19.125 42.9575 19.125 41.2344V22.3281H52.875V33.3438C52.875 34.2067 53.5745 34.9062 54.4375 34.9062Z" fill="#6366F1"/>
</g>
<defs>
<clipPath id="clip0_20005153_3432">
<rect width="40" height="40" fill="white" transform="translate(16 16)"/>
</clipPath>
</defs>
</svg>
