<svg width="56" height="56" viewBox="0 0 56 56" fill="none" xmlns="http://www.w3.org/2000/svg">
<path fill-rule="evenodd" clip-rule="evenodd" d="M50.0608 9.74399C49.645 7.50912 48.3216 6.40785 47.125 5.97483C45.8341 5.50639 43.2165 5.02115 39.9276 4.63196C37.2816 4.31912 34.1716 4.34402 32.293 4.40232C32.0676 2.85192 30.9844 1.43559 29.7724 0.945234C26.5433 -0.359705 21.554 -0.0444499 20.2731 0.315979C19.2551 0.601601 18.1285 1.18703 17.5014 2.08897C17.0809 2.69149 16.8088 3.46341 16.8067 4.5418C16.8067 5.15214 16.8236 6.5899 16.8391 7.86723C16.8519 8.93413 16.8656 9.90715 16.8699 10.2076L16.8699 10.2081L16.8712 10.3025C16.8706 11.4433 15.9497 12.3718 14.8083 12.3733H9.5727C8.45599 12.3733 7.60261 12.5617 6.95085 12.859C6.29803 13.1566 5.83567 13.5578 5.48436 14.0325C4.785 14.9749 4.66367 16.138 4.66655 17.3249C4.66655 17.3249 4.67684 18.2948 4.90961 20.172C5.10305 21.6245 6.67203 31.7716 8.16236 34.8576C8.74009 36.0583 9.12505 36.5584 10.2602 37.0876C12.7895 38.1748 18.5667 39.3842 21.2744 39.7306C21.7223 39.7881 22.1425 39.8561 22.5365 39.9199L22.5366 39.9199C24.5206 40.2412 25.8411 40.455 26.6846 38.6795C26.6879 38.6743 26.8871 38.15 27.161 37.3811C28.0387 34.7109 28.1609 32.3417 28.1609 30.6273C28.1609 30.4529 28.4156 30.4449 28.4156 30.6273C28.4156 30.6946 28.4149 30.7715 28.4141 30.8568V30.8568C28.4007 32.3047 28.3647 36.185 31.4082 37.2702C32.6805 37.7232 35.3198 38.1271 38.0015 38.4426C40.4264 38.7224 42.1861 39.6805 42.1861 45.9263C42.1861 49.7263 41.3912 50.2472 37.2353 50.2472L36.9261 50.2474C33.7874 50.25 32.5823 50.251 32.5823 47.6478C32.5823 45.661 34.3728 45.6823 35.8918 45.7003C36.0332 45.702 36.1723 45.7036 36.3074 45.7036C36.7531 45.7036 36.7147 45.4941 36.625 45.0047C36.5722 44.7166 36.5016 44.3314 36.5016 43.8349C36.5016 43.2699 36.6507 42.806 36.7628 42.4574C36.9151 41.9838 36.9989 41.7233 36.5465 41.712C31.0637 41.5605 27.8375 41.7057 27.8375 48.59C27.8375 54.8398 30.2198 56.0004 38.0015 56.0004C44.1028 56.0004 46.2536 55.7998 48.7729 47.9519C49.2716 46.4027 50.4771 41.6747 51.2068 33.7364C51.6679 28.717 50.7717 13.5676 50.0608 9.74399ZM39.425 26.49C38.6712 26.4636 37.9462 26.5114 37.2701 26.6204C37.4604 25.0777 38.0946 23.1846 40.3415 23.2638C42.8288 23.3498 43.1773 25.7099 43.1862 27.3086C42.1374 26.8392 40.8391 26.5399 39.425 26.49ZM9.33041 10.8484H9.32695C8.04131 10.8484 6.96728 11.0684 6.0815 11.4697C6.0412 11.4873 5.75839 11.6278 5.54847 11.7321L5.54281 11.7349C5.54857 11.7131 5.56098 11.6918 5.58088 11.6753L15.7522 1.54887C15.7721 1.52889 15.7922 1.51904 15.8122 1.51567L15.6332 1.85322C15.2585 2.60477 15.0435 3.50179 15.0435 4.53057V4.54534C15.0435 5.75065 15.1023 9.96672 15.1068 10.2852L15.107 10.3043C15.1064 10.6031 14.8652 10.8484 14.5652 10.8484H9.33041Z" fill="#20C05C"/>
</svg>
