<svg width="113" height="30" viewBox="0 0 113 30" fill="none" xmlns="http://www.w3.org/2000/svg">
<path d="M32.9668 9.65152H35.7148V20.7944H32.9668V9.65152ZM36.8105 16.6029C36.8105 13.8429 38.5226 12.1887 41.0908 12.1887C43.659 12.1887 45.3711 13.8429 45.3711 16.6029C45.3711 19.3629 43.7189 21.0344 41.0908 21.0344C38.4627 21.0344 36.8105 19.4229 36.8105 16.6029ZM42.6488 16.6029C42.6488 15.0858 42.0582 14.1944 41.1165 14.1944C40.1748 14.1944 39.5927 15.0515 39.5927 16.6029C39.5927 18.1544 40.1748 19.0029 41.1165 19.0029C42.0582 19.0029 42.666 18.1544 42.666 16.6115L42.6488 16.6029ZM46.4669 21.3687H49.1207C49.2415 21.6547 49.4525 21.8934 49.7214 22.0481C49.9904 22.2029 50.3025 22.2653 50.6102 22.2258C51.6632 22.2258 52.211 21.6601 52.211 20.8201V19.2772H52.2196C51.9928 19.7577 51.6261 20.158 51.1678 20.4258C50.7093 20.6936 50.1807 20.8161 49.6514 20.7772C47.6397 20.7772 46.3042 19.2429 46.3042 16.6029C46.3042 13.9629 47.5798 12.3172 49.7285 12.3172C50.2713 12.2882 50.8098 12.4283 51.2697 12.7185C51.7297 13.0086 52.0885 13.4344 52.2966 13.9372H52.2196V12.3858H54.9419V20.7344C54.9419 22.7487 53.1613 24.0087 50.5417 24.0087C48.1619 24.0001 46.6381 22.9115 46.484 21.3772L46.4669 21.3687ZM52.2196 16.6029C52.2196 15.2572 51.6032 14.4087 50.6273 14.4087C49.6514 14.4087 49.0522 15.2658 49.0522 16.6029C49.0522 17.9401 49.6429 18.7287 50.6273 18.7287C51.6118 18.7287 52.2196 18.0001 52.2196 16.6029ZM56.0291 16.6029C56.0291 13.8429 57.7412 12.1887 60.3094 12.1887C62.8776 12.1887 64.5897 13.8429 64.5897 16.6029C64.5897 19.3629 62.9289 21.0344 60.3094 21.0344C57.6898 21.0344 56.0462 19.4229 56.0462 16.6029H56.0291ZM61.8674 16.6029C61.8674 15.0858 61.2682 14.1944 60.3351 14.1944C59.402 14.1944 58.8113 15.0515 58.8113 16.6029C58.8113 18.1544 59.3934 19.0029 60.3351 19.0029C61.2767 19.0029 61.8845 18.1544 61.8845 16.6115L61.8674 16.6029ZM65.7026 10.3544C65.6906 10.0741 65.7626 9.79663 65.9095 9.55775C66.0563 9.31878 66.2712 9.12935 66.5264 9.01372C66.7817 8.89801 67.0657 8.86149 67.3418 8.90881C67.618 8.95603 67.8737 9.08495 68.0761 9.27892C68.2784 9.47298 68.4182 9.72309 68.4775 9.99729C68.5366 10.2715 68.5126 10.5572 68.4083 10.8175C68.304 11.0779 68.1244 11.3011 67.8924 11.4584C67.6604 11.6157 67.3867 11.6998 67.1065 11.7001C66.9275 11.7046 66.7493 11.6735 66.5823 11.6086C66.4154 11.5437 66.2629 11.4461 66.1339 11.3217C66.0049 11.1974 65.9019 11.0486 65.8308 10.8839C65.7597 10.7193 65.7219 10.5423 65.7197 10.3629L65.7026 10.3544ZM65.7026 12.3772H68.4848V20.8287H65.7454L65.7026 12.3772ZM78.4921 16.6029C78.4921 19.3544 77.2594 20.9487 75.162 20.9487C74.6251 20.9818 74.0909 20.8491 73.6316 20.5687C73.1724 20.2881 72.8102 19.8733 72.5938 19.3801H72.5425V23.5458H69.7945V12.4029H72.5254V13.9115H72.5767C72.7856 13.4086 73.1443 12.9824 73.6038 12.6909C74.0634 12.3995 74.6016 12.2571 75.1449 12.2829C77.3022 12.2658 78.5435 13.8515 78.5435 16.6115L78.4921 16.6029ZM75.6928 16.6029C75.6928 15.2658 75.0679 14.4001 74.1005 14.4001C73.1332 14.4001 72.5254 15.2572 72.5168 16.6029C72.5082 17.9487 73.1332 18.7972 74.1005 18.7972C75.0679 18.7972 75.7442 18.0001 75.7442 16.6115L75.6928 16.6029ZM83.1833 12.1801C85.4861 12.1801 86.9157 13.2687 86.9329 15.0172H84.4246C84.4246 14.4087 83.9195 14.0315 83.1662 14.0315C82.4129 14.0315 82.0533 14.3229 82.0533 14.7601C82.0533 15.1972 82.3701 15.3344 83.0035 15.4629L84.767 15.8229C86.4791 16.1829 87.164 16.8687 87.164 18.1458C87.164 19.8601 85.5803 21.0258 83.2261 21.0258C80.872 21.0258 79.3396 19.8944 79.2283 18.1715H81.8907C81.9677 18.7972 82.4642 19.1658 83.2689 19.1658C84.0736 19.1658 84.4503 18.9087 84.4503 18.4544C84.4503 18.0001 84.1935 17.9229 83.5343 17.7858L81.942 17.4515C80.2898 17.1001 79.4252 16.2344 79.4252 14.9401C79.4766 13.2601 80.9148 12.1887 83.2347 12.1887L83.1833 12.1801ZM96.3666 20.8201H93.7043V19.2344H93.6529C93.504 19.7633 93.1795 20.2256 92.7327 20.5449C92.2858 20.8644 91.7439 21.0219 91.196 20.9915C90.7826 21.005 90.3699 20.9307 89.9873 20.7735C89.6046 20.6164 89.2588 20.3799 88.9737 20.0797C88.6878 19.7793 88.4695 19.422 88.3317 19.0311C88.1938 18.6403 88.1399 18.2246 88.1742 17.8115V12.3858H90.9221V17.2201C90.9221 18.2144 91.4443 18.7544 92.3004 18.7544C92.5015 18.7528 92.6993 18.7082 92.8816 18.6235C93.064 18.5387 93.2258 18.4158 93.3559 18.2631C93.4869 18.1103 93.5836 17.9313 93.6392 17.7381C93.694 17.5448 93.7077 17.3419 93.6786 17.1429V12.3858H96.418L96.3666 20.8201ZM97.6935 12.3772H100.364V14.0058H100.424C100.572 13.4841 100.888 13.0261 101.323 12.7035C101.759 12.3809 102.289 12.2119 102.83 12.2229C103.374 12.1756 103.915 12.333 104.349 12.6643C104.783 12.9956 105.077 13.477 105.176 14.0144H105.295C105.467 13.4741 105.811 13.0056 106.276 12.6817C106.74 12.3577 107.299 12.1965 107.864 12.2229C108.239 12.2086 108.614 12.2739 108.963 12.4146C109.312 12.5552 109.627 12.768 109.888 13.0391C110.149 13.3101 110.35 13.6334 110.477 13.9875C110.605 14.3417 110.657 14.7189 110.629 15.0944V20.8287H107.864V15.7972C107.864 14.9401 107.461 14.4601 106.682 14.4601C106.509 14.4573 106.338 14.4919 106.18 14.5615C106.021 14.6312 105.881 14.7343 105.766 14.8637C105.651 14.9932 105.566 15.1459 105.515 15.3115C105.466 15.4771 105.452 15.6515 105.475 15.8229V20.8287H102.856V15.7715C102.856 14.9144 102.436 14.4601 101.683 14.4601C101.508 14.4587 101.335 14.4947 101.176 14.5657C101.016 14.6367 100.874 14.7411 100.757 14.8718C100.642 15.0025 100.555 15.1565 100.504 15.3235C100.452 15.4905 100.436 15.6667 100.459 15.8401V20.8287H97.7107L97.6935 12.3772Z" fill="#B4B7C9"/>
<path d="M27.5308 10.3801C27.5309 8.67414 27.0164 7.00791 26.0547 5.59967C25.093 4.19144 23.7289 3.10685 22.1412 2.488C20.5534 1.86913 18.816 1.74485 17.1565 2.13141C15.4969 2.51797 13.9928 3.39737 12.8408 4.6544H2.15723V27.2315H24.7144V16.6801C25.5997 15.8873 26.3082 14.9164 26.7935 13.8308C27.2788 12.7452 27.5301 11.5695 27.5308 10.3801ZM23.1906 10.3801C23.1923 11.1976 22.9518 11.9972 22.4994 12.6778C22.047 13.3583 21.4033 13.8892 20.6494 14.2031C19.8956 14.5172 19.0657 14.6003 18.2647 14.4418C17.4637 14.2834 16.7277 13.8905 16.1498 13.3131C15.5719 12.7356 15.1781 11.9995 15.0182 11.1978C14.8582 10.3962 14.9395 9.56506 15.2515 8.80966C15.5635 8.05422 16.0924 7.40848 16.7711 6.95413C17.4499 6.49979 18.248 6.25727 19.0644 6.25726C20.1573 6.25726 21.2055 6.69136 21.979 7.46429C22.7527 8.23723 23.1884 9.28589 23.1906 10.3801ZM20.3742 22.8858H6.49745V9.00011H10.7264C10.6447 9.45569 10.6017 9.91734 10.598 10.3801C10.6003 12.6277 11.493 14.7826 13.0803 16.3719C14.6675 17.9611 16.8196 18.855 19.0644 18.8573C19.5033 18.8549 19.9413 18.8177 20.3742 18.7458V22.8858Z" fill="#B4B7C9"/>
</svg>
