<svg width="122" height="44" viewBox="0 0 122 44" fill="none" xmlns="http://www.w3.org/2000/svg">
<path d="M60.68 29.6489C61.4304 29.6489 62.1569 29.5534 62.8595 29.3624C63.569 29.1714 64.2034 28.8848 64.7628 28.5028C65.3221 28.114 65.7656 27.6262 66.093 27.0396C66.4273 26.4461 66.5944 25.7537 66.5944 24.9624C66.5944 24.2188 66.4545 23.6048 66.1749 23.1205C65.902 22.6362 65.5507 22.2473 65.1209 21.954C64.698 21.6538 64.2545 21.4219 63.7907 21.2582C63.3268 21.0876 62.9038 20.9512 62.5218 20.8489L59.9637 20.1531C59.6499 20.0712 59.3429 19.9689 59.0428 19.8461C58.7426 19.7233 58.4936 19.563 58.2958 19.3652C58.098 19.1605 57.999 18.8979 57.999 18.5773C57.999 18.2293 58.1184 17.9292 58.3572 17.6768C58.6028 17.4244 58.9166 17.2334 59.2986 17.1038C59.6874 16.9673 60.1001 16.9059 60.5367 16.9196C61.2052 16.94 61.8192 17.1379 62.3786 17.5131C62.938 17.8883 63.2995 18.434 63.4632 19.1503L66.4716 18.6387C66.1169 17.2538 65.4279 16.1931 64.4046 15.4563C63.3814 14.7196 62.1057 14.341 60.5776 14.3205C59.568 14.3137 58.6471 14.4706 57.8149 14.7912C56.9826 15.1118 56.3175 15.5996 55.8195 16.2545C55.3215 16.9093 55.0725 17.7314 55.0725 18.7205C55.0725 19.4231 55.1885 20.0064 55.4204 20.4703C55.6592 20.9273 55.9559 21.2957 56.3107 21.5754C56.6654 21.8551 57.0304 22.07 57.4056 22.22C57.7876 22.3701 58.1218 22.4861 58.4083 22.568L62.2353 23.6935C62.8083 23.8641 63.1904 24.079 63.3814 24.3382C63.5724 24.5906 63.6679 24.8669 63.6679 25.167C63.6679 25.5763 63.528 25.9208 63.2483 26.2005C62.9755 26.4802 62.6242 26.6917 62.1944 26.8349C61.7646 26.9782 61.3212 27.0498 60.8642 27.0498C60.0456 27.0498 59.3156 26.8213 58.6744 26.3642C58.0332 25.9072 57.6102 25.2557 57.4056 24.4098L54.4995 24.8396C54.6496 25.8355 55.0043 26.6951 55.5637 27.4182C56.1299 28.1345 56.8496 28.687 57.7228 29.0759C58.6028 29.4579 59.5885 29.6489 60.68 29.6489Z" fill="#0B0F19"/>
<path d="M69.0481 16.7559H71.8314V14.3H69.0481V16.7559ZM69.0481 29.3419H71.8314V18.2907H69.0481V29.3419Z" fill="#0B0F19"/>
<path d="M75.1037 29.3419H77.887V14.3H75.1037V29.3419Z" fill="#0B0F19"/>
<path d="M81.1593 16.7559H83.9426V14.3H81.1593V16.7559ZM81.1593 29.3419H83.9426V18.2907H81.1593V29.3419Z" fill="#0B0F19"/>
<path d="M91.8809 29.6489C93.1634 29.6489 94.2413 29.3317 95.1144 28.6972C95.9876 28.0628 96.5811 27.159 96.8949 25.9856L94.0502 25.3921C93.8865 25.9242 93.6409 26.3335 93.3135 26.62C92.9861 26.9066 92.5085 27.0498 91.8809 27.0498C91.0419 27.0498 90.4075 26.7531 89.9777 26.1596C89.5547 25.5593 89.3433 24.7782 89.3433 23.8163C89.3433 22.8954 89.5445 22.128 89.947 21.514C90.3563 20.8932 91.0009 20.5828 91.8809 20.5828C92.3926 20.5828 92.8496 20.7431 93.2521 21.0638C93.6614 21.3844 93.9479 21.8312 94.1116 22.4042L96.8949 21.6675C96.6493 20.5283 96.0831 19.6312 95.1963 18.9763C94.3163 18.3146 93.2248 17.9838 91.9219 17.9838C90.7963 17.9838 89.8208 18.2362 88.9954 18.741C88.1699 19.2458 87.5287 19.9382 87.0716 20.8182C86.6214 21.6982 86.3963 22.6976 86.3963 23.8163C86.3963 24.9214 86.6146 25.914 87.0512 26.794C87.4878 27.674 88.1154 28.3698 88.934 28.8814C89.7526 29.3931 90.7349 29.6489 91.8809 29.6489Z" fill="#0B0F19"/>
<path d="M103.615 29.6489C104.72 29.6489 105.692 29.4033 106.531 28.9121C107.377 28.4141 108.035 27.7286 108.506 26.8554C108.983 25.9754 109.222 24.9624 109.222 23.8163C109.222 22.6771 108.987 21.6709 108.516 20.7977C108.045 19.9177 107.387 19.2287 106.541 18.7307C105.702 18.2328 104.727 17.9838 103.615 17.9838C102.523 17.9838 101.558 18.2293 100.719 18.7205C99.8799 19.2117 99.2216 19.8973 98.7441 20.7773C98.2666 21.6504 98.0278 22.6635 98.0278 23.8163C98.0278 24.9555 98.2598 25.9652 98.7236 26.8452C99.1943 27.7183 99.8492 28.4039 100.688 28.9019C101.527 29.3999 102.503 29.6489 103.615 29.6489ZM103.615 27.0498C102.748 27.0498 102.09 26.7599 101.64 26.18C101.197 25.5934 100.975 24.8055 100.975 23.8163C100.975 22.8545 101.186 22.0768 101.609 21.4833C102.039 20.883 102.708 20.5828 103.615 20.5828C104.495 20.5828 105.157 20.8762 105.6 21.4628C106.05 22.0495 106.275 22.834 106.275 23.8163C106.275 24.7645 106.054 25.5422 105.61 26.1493C105.174 26.7497 104.508 27.0498 103.615 27.0498Z" fill="#0B0F19"/>
<path d="M111.452 29.3419H114.276V23.7345C114.276 23.0455 114.351 22.4929 114.501 22.0768C114.658 21.6607 114.856 21.3469 115.095 21.1354C115.334 20.9171 115.589 20.7704 115.862 20.6954C116.135 20.6204 116.391 20.5828 116.63 20.5828C117.223 20.5828 117.68 20.7159 118.001 20.9819C118.328 21.248 118.564 21.5788 118.707 21.9745C118.85 22.3701 118.935 22.7658 118.963 23.1614C118.99 23.5503 119.004 23.8709 119.004 24.1233V29.3419H121.828V23.141C121.828 22.9568 121.814 22.6635 121.787 22.261C121.76 21.8585 121.681 21.4151 121.552 20.9307C121.422 20.4396 121.204 19.9689 120.897 19.5186C120.596 19.0684 120.174 18.6966 119.628 18.4033C119.082 18.11 118.376 17.9633 117.51 17.9633C116.712 17.9633 116.016 18.0963 115.422 18.3624C114.829 18.6284 114.331 18.9831 113.928 19.4266V18.2907H111.452V29.3419Z" fill="#0B0F19"/>
<path d="M10.2174 22L4.08696 12.2791L22.9891 0L22.4783 10.7442L10.2174 22Z" fill="url(#paint0_linear_20005153_3305)"/>
<path d="M22.4783 10.7442L22.9891 0L42.4022 8.69767L38.3152 26.093L12.2609 30.186L10.2174 22L22.4783 10.7442Z" fill="url(#paint1_linear_20005153_3305)"/>
<path d="M31.163 44L12.2609 30.186L38.3152 26.093L42.913 30.6977L31.163 44Z" fill="url(#paint2_linear_20005153_3305)"/>
<path d="M38.3152 26.093L42.913 30.6977L47 17.907L42.4022 8.69767L38.3152 26.093Z" fill="url(#paint3_linear_20005153_3305)"/>
<path d="M12.2609 30.186L31.163 44L12.2609 41.4418L0 26.6046L12.2609 30.186Z" fill="url(#paint4_linear_20005153_3305)"/>
<path d="M4.08696 12.2791L0 26.6046L12.2609 30.186L10.2174 22L4.08696 12.2791Z" fill="url(#paint5_linear_20005153_3305)"/>
<path d="M31.1634 44L12.2612 30.186L38.3156 26.093L42.9134 30.6977L31.1634 44Z" fill="black" fill-opacity="0.17"/>
<path d="M38.3145 26.0931L42.9123 30.6977L46.9992 17.9071L42.4014 8.69775L38.3145 26.0931Z" fill="black" fill-opacity="0.1"/>
<path d="M12.2609 30.1861L31.163 44.0001L12.2609 41.4419L0 26.6047L12.2609 30.1861Z" fill="black" fill-opacity="0.23"/>
<path d="M4.08696 12.2791L0 26.6046L12.2609 30.186L10.2174 22L4.08696 12.2791Z" fill="#C0C0C0" fill-opacity="0.05"/>
<path d="M10.2174 22L4.08696 12.2791L22.9891 0L22.4783 10.7442L10.2174 22Z" fill="white" fill-opacity="0.15"/>
<path fill-rule="evenodd" clip-rule="evenodd" d="M10.2174 22L22.4783 10.7442L22.9891 0L4.08696 12.2791L10.2174 22ZM10.2807 21.5255L22.1781 10.6033L22.6545 0.583262L4.50783 12.3716L10.2807 21.5255Z" fill="white" fill-opacity="0.15"/>
<path fill-rule="evenodd" clip-rule="evenodd" d="M22.7784 10.8851L10.559 22.1028L12.4903 29.8393L38.0641 25.8217L42.0458 8.87429L23.2739 0.4639L22.7784 10.8851ZM22.4783 10.7442L10.2174 22L12.2609 30.186L38.3152 26.093L42.4022 8.69767L22.9891 0L22.4783 10.7442Z" fill="white" fill-opacity="0.15"/>
<path fill-rule="evenodd" clip-rule="evenodd" d="M31.1183 43.5873L42.4924 30.7105L38.2087 26.4205L13.0388 30.3745L31.1183 43.5873ZM31.163 44L42.913 30.6977L38.3152 26.093L12.2609 30.186L31.163 44Z" fill="white" fill-opacity="0.15"/>
<path fill-rule="evenodd" clip-rule="evenodd" d="M42.913 30.6977L47 17.907L42.4022 8.69767L38.3152 26.093L42.913 30.6977ZM38.6527 25.9969L42.7743 30.1246L46.67 17.9325L42.5066 9.59332L38.6527 25.9969Z" fill="white" fill-opacity="0.15"/>
<path fill-rule="evenodd" clip-rule="evenodd" d="M12.1235 30.4657L0.872794 27.1793L12.4206 41.1537L30.0047 43.5334L12.1235 30.4657ZM12.2609 30.186L0 26.6046L12.2609 41.4418L31.163 44L12.2609 30.186Z" fill="white" fill-opacity="0.15"/>
<path fill-rule="evenodd" clip-rule="evenodd" d="M0.378475 26.3954L11.834 29.7416L9.93196 22.1222L4.19353 13.0229L0.378475 26.3954ZM0 26.6046L12.2609 30.186L10.2174 22L4.08696 12.2791L0 26.6046Z" fill="white" fill-opacity="0.15"/>
<path d="M23.6972 19.0156H27.1656C27.1154 15.9651 24.6082 13.859 20.7971 13.859C17.0446 13.859 14.2949 15.9317 14.3117 19.0407C14.3033 21.5647 16.0835 23.0105 18.9752 23.7042L20.8389 24.1722C22.7026 24.6235 23.739 25.1584 23.7473 26.3118C23.739 27.5654 22.5522 28.4179 20.7135 28.4179C18.8331 28.4179 17.4792 27.5487 17.3622 25.8354H13.8604C13.9523 29.5378 16.6016 31.4517 20.7553 31.4517C24.9341 31.4517 27.3912 29.4542 27.3996 26.3201C27.3912 23.4702 25.2433 21.9575 22.2681 21.2889L20.7303 20.9211C19.2426 20.5785 17.9973 20.0269 18.0224 18.7983C18.0224 17.6951 19.0002 16.8844 20.7721 16.8844C22.5021 16.8844 23.5635 17.6701 23.6972 19.0156Z" fill="white"/>
<path d="M32.5507 19.3023H29.3182V31.2093H32.5507V19.3023Z" fill="white"/>
<path d="M31.3458 9.90698H30.1627L28.6888 10.8401V11.9564L30.0522 11.1017H30.0871V15.8605H31.3458V9.90698Z" fill="white"/>
<path d="M32.6707 14.814H35.5282V15.8605H36.7317V14.814H37.4701V13.8052H36.7317V9.90698H35.1561L32.6707 13.8227V14.814ZM35.5515 13.8052H33.9381V13.7587L35.505 11.2791H35.5515V13.8052Z" fill="white"/>
<defs>
<linearGradient id="paint0_linear_20005153_3305" x1="0" y1="22.1053" x2="47" y2="22.1053" gradientUnits="userSpaceOnUse">
<stop stop-color="#6366F1"/>
<stop offset="0.5" stop-color="#8B5CF6"/>
<stop offset="1" stop-color="#D946EF"/>
</linearGradient>
<linearGradient id="paint1_linear_20005153_3305" x1="0" y1="22.1053" x2="47" y2="22.1053" gradientUnits="userSpaceOnUse">
<stop stop-color="#6366F1"/>
<stop offset="0.5" stop-color="#8B5CF6"/>
<stop offset="1" stop-color="#D946EF"/>
</linearGradient>
<linearGradient id="paint2_linear_20005153_3305" x1="0" y1="22.1053" x2="47" y2="22.1053" gradientUnits="userSpaceOnUse">
<stop stop-color="#6366F1"/>
<stop offset="0.5" stop-color="#8B5CF6"/>
<stop offset="1" stop-color="#D946EF"/>
</linearGradient>
<linearGradient id="paint3_linear_20005153_3305" x1="0" y1="22.1053" x2="47" y2="22.1053" gradientUnits="userSpaceOnUse">
<stop stop-color="#6366F1"/>
<stop offset="0.5" stop-color="#8B5CF6"/>
<stop offset="1" stop-color="#D946EF"/>
</linearGradient>
<linearGradient id="paint4_linear_20005153_3305" x1="0" y1="22.1053" x2="47" y2="22.1053" gradientUnits="userSpaceOnUse">
<stop stop-color="#6366F1"/>
<stop offset="0.5" stop-color="#8B5CF6"/>
<stop offset="1" stop-color="#D946EF"/>
</linearGradient>
<linearGradient id="paint5_linear_20005153_3305" x1="0" y1="22.1053" x2="47" y2="22.1053" gradientUnits="userSpaceOnUse">
<stop stop-color="#6366F1"/>
<stop offset="0.5" stop-color="#8B5CF6"/>
<stop offset="1" stop-color="#D946EF"/>
</linearGradient>
</defs>
</svg>
