<svg width="72" height="72" viewBox="0 0 72 72" fill="none" xmlns="http://www.w3.org/2000/svg">
<rect width="72" height="72" rx="8" fill="#F3F6FF"/>
<path d="M44.0513 45.1406H39.4419C38.5789 45.1406 37.8794 45.8402 37.8794 46.7031C37.8794 47.5661 38.5789 48.2656 39.4419 48.2656H44.0513C44.9142 48.2656 45.6138 47.5661 45.6138 46.7031C45.6138 45.8402 44.9142 45.1406 44.0513 45.1406Z" fill="#6366F1"/>
<path d="M44.0513 35.6875H39.4419C38.5789 35.6875 37.8794 36.387 37.8794 37.25C37.8794 38.113 38.5789 38.8125 39.4419 38.8125H44.0513C44.9142 38.8125 45.6138 38.113 45.6138 37.25C45.6138 36.387 44.9142 35.6875 44.0513 35.6875Z" fill="#6366F1"/>
<path d="M50.2926 43.5C51.1556 43.5 51.8551 42.8005 51.8551 41.9375V22.25C51.8551 18.8038 49.0513 16 45.6051 16H26.395C22.9488 16 20.145 18.8038 20.145 22.25V49.75C20.145 53.1963 22.9488 56 26.395 56H45.605C49.0513 56 51.855 53.1963 51.8551 49.75C51.8551 48.887 51.1556 48.1875 50.2926 48.1875C49.4296 48.1875 48.7301 48.887 48.7301 49.75C48.7301 51.4731 47.3282 52.875 45.6051 52.875H26.395C24.6719 52.875 23.27 51.4731 23.27 49.75V22.25C23.27 20.5269 24.6719 19.125 26.395 19.125H45.6051C47.3282 19.125 48.7301 20.5269 48.7301 22.25V41.9375C48.7301 42.8005 49.4296 43.5 50.2926 43.5Z" fill="#6366F1"/>
<path d="M35.9839 22.2176C35.3188 21.668 34.3339 21.7616 33.7842 22.4269L30.4088 26.5123L29.077 25.1446C28.475 24.5264 27.4857 24.5132 26.8674 25.1152C26.2492 25.7173 26.236 26.7065 26.8381 27.3248L28.5142 29.0461C28.528 29.0603 28.542 29.0742 28.5564 29.0879C29.0629 29.57 29.7389 29.8381 30.4343 29.8381C30.494 29.838 30.5541 29.836 30.6141 29.8319C31.3676 29.7817 32.0713 29.417 32.5468 28.8308L36.1933 24.4173C36.743 23.752 36.6492 22.7672 35.9839 22.2176Z" fill="#D946EF"/>
<path d="M35.9839 41.2681C35.3188 40.7185 34.3338 40.8122 33.7842 41.4774L30.4079 45.5639L29.0739 44.2016C28.4701 43.585 27.4809 43.5747 26.8643 44.1785C26.2477 44.7822 26.2374 45.7715 26.8411 46.3881L28.5172 48.0997C28.53 48.1128 28.543 48.1256 28.5563 48.1383C29.0628 48.6204 29.7389 48.8886 30.4343 48.8886C30.4941 48.8885 30.5541 48.8865 30.6141 48.8825C31.3675 48.8323 32.0712 48.4676 32.5468 47.8814L36.1933 43.4678C36.743 42.8025 36.6492 41.8177 35.9839 41.2681Z" fill="#D946EF"/>
<path d="M44.0513 26.0781H39.4419C38.5789 26.0781 37.8794 26.7777 37.8794 27.6406C37.8794 28.5036 38.5789 29.2031 39.4419 29.2031H44.0513C44.9142 29.2031 45.6138 28.5036 45.6138 27.6406C45.6138 26.7777 44.9142 26.0781 44.0513 26.0781Z" fill="#6366F1"/>
<path d="M35.9839 31.8189C35.3188 31.2693 34.3338 31.363 33.7842 32.0283L30.4079 36.1147L29.0739 34.7524C28.4701 34.1358 27.4809 34.1255 26.8643 34.7293C26.2477 35.333 26.2374 36.3223 26.8411 36.9389L28.5172 38.6505C28.53 38.6636 28.543 38.6765 28.5563 38.6891C29.0628 39.1712 29.7389 39.4394 30.4343 39.4394C30.4941 39.4393 30.5541 39.4373 30.6141 39.4333C31.3675 39.3831 32.0712 39.0184 32.5468 38.4322L36.1933 34.0187C36.743 33.3533 36.6492 32.3685 35.9839 31.8189Z" fill="#D946EF"/>
</svg>
