<svg width="180" height="52" viewBox="0 0 180 52" fill="none" xmlns="http://www.w3.org/2000/svg">
<rect width="180" height="52" rx="8" fill="#0B0F19"/>
<path d="M43.5694 25.8087C43.5333 21.899 46.8528 19.9968 47.0046 19.9083C45.1246 17.2359 42.2107 16.8707 41.1867 16.8416C38.7394 16.5905 36.3655 18.2694 35.1188 18.2694C33.8473 18.2694 31.9275 16.8659 29.8584 16.9071C27.1958 16.9472 24.705 18.4502 23.3389 20.7841C20.5195 25.5431 22.6222 32.5365 25.3233 36.3832C26.6745 38.2671 28.2534 40.3706 30.32 40.2966C32.3418 40.2153 33.097 39.0398 35.5369 39.0398C37.9543 39.0398 38.6635 40.2966 40.7712 40.2493C42.941 40.2153 44.3072 38.3569 45.6111 36.456C47.1725 34.2967 47.7996 32.1701 47.8245 32.061C47.7735 32.044 43.6104 30.4949 43.5694 25.8087Z" fill="white"/>
<path d="M39.588 14.3111C40.6754 12.9852 41.4194 11.1814 41.2129 9.35083C39.639 9.41876 37.6707 10.4123 36.5372 11.7091C35.5344 12.8518 34.6386 14.7248 34.87 16.4862C36.638 16.6148 38.4533 15.6164 39.588 14.3111Z" fill="white"/>
<path d="M72.7597 40.0279H69.9341L68.3864 35.286H63.0065L61.5321 40.0279H58.7812L64.1114 23.8842H67.4035L72.7597 40.0279ZM67.9198 33.2965L66.5201 29.0811C66.372 28.6504 66.0946 27.6363 65.6852 26.0399H65.6355C65.4725 26.7265 65.21 27.7406 64.8492 29.0811L63.4743 33.2965H67.9198Z" fill="white"/>
<path d="M86.4669 34.0645C86.4669 36.0442 85.9182 37.6091 84.8209 38.7579C83.8379 39.7805 82.6174 40.2912 81.1605 40.2912C79.5878 40.2912 78.4581 39.7405 77.77 38.639H77.7203V44.7711H75.0677V32.2194C75.0677 30.9747 75.0341 29.6974 74.9694 28.3872H77.3022L77.4503 30.2323H77.5001C78.3847 28.8421 79.7271 28.1483 81.5287 28.1483C82.9372 28.1483 84.1129 28.6905 85.0535 29.7762C85.9966 30.8631 86.4669 32.2921 86.4669 34.0645ZM83.7645 34.1591C83.7645 33.0261 83.5033 32.092 82.9782 31.3569C82.4046 30.5902 81.6345 30.2069 80.669 30.2069C80.0146 30.2069 79.4198 30.4204 78.8886 30.8413C78.3561 31.2659 78.0077 31.8203 77.8447 32.5069C77.7626 32.8271 77.7215 33.0891 77.7215 33.2954V35.2363C77.7215 36.083 77.9878 36.7975 78.5203 37.381C79.0528 37.9645 79.7446 38.2557 80.5956 38.2557C81.5947 38.2557 82.3723 37.8796 82.9284 37.1299C83.4858 36.379 83.7645 35.3891 83.7645 34.1591Z" fill="white"/>
<path d="M100.199 34.0645C100.199 36.0442 99.6503 37.6091 98.5517 38.7579C97.5701 39.7805 96.3495 40.2912 94.8926 40.2912C93.3199 40.2912 92.1902 39.7405 91.5034 38.639H91.4536V44.7711H88.801V32.2194C88.801 30.9747 88.7674 29.6974 88.7027 28.3872H91.0356L91.1837 30.2323H91.2334C92.1168 28.8421 93.4593 28.1483 95.2621 28.1483C96.6693 28.1483 97.845 28.6905 98.7881 29.7762C99.7275 30.8631 100.199 32.2921 100.199 34.0645ZM97.4967 34.1591C97.4967 33.0261 97.2341 32.092 96.7091 31.3569C96.1355 30.5902 95.3679 30.2069 94.4011 30.2069C93.7454 30.2069 93.152 30.4204 92.6194 30.8413C92.0869 31.2659 91.7398 31.8203 91.5768 32.5069C91.4959 32.8271 91.4536 33.0891 91.4536 33.2954V35.2363C91.4536 36.083 91.7199 36.7975 92.2499 37.381C92.7824 37.9633 93.4742 38.2557 94.3277 38.2557C95.3268 38.2557 96.1044 37.8796 96.6606 37.1299C97.218 36.379 97.4967 35.3891 97.4967 34.1591Z" fill="white"/>
<path d="M115.552 35.5007C115.552 36.874 115.063 37.9912 114.082 38.8537C113.003 39.7963 111.501 40.267 109.572 40.267C107.79 40.267 106.361 39.9321 105.28 39.2613L105.895 37.1057C107.059 37.7923 108.337 38.1368 109.73 38.1368C110.729 38.1368 111.506 37.916 112.065 37.4769C112.621 37.0377 112.898 36.4482 112.898 35.713C112.898 35.058 112.67 34.506 112.21 34.0584C111.754 33.6108 110.991 33.1947 109.926 32.8101C107.027 31.756 105.579 30.2117 105.579 28.181C105.579 26.8539 106.087 25.7657 107.103 24.919C108.116 24.0711 109.467 23.6477 111.157 23.6477C112.663 23.6477 113.915 23.9037 114.914 24.4144L114.251 26.5227C113.318 26.0278 112.263 25.7803 111.082 25.7803C110.149 25.7803 109.42 26.0047 108.897 26.4511C108.455 26.8502 108.234 27.3367 108.234 27.9129C108.234 28.551 108.487 29.0787 108.994 29.4936C109.436 29.8769 110.238 30.2918 111.403 30.7394C112.828 31.2986 113.874 31.9525 114.547 32.7022C115.218 33.4494 115.552 34.3847 115.552 35.5007Z" fill="white"/>
<path d="M124.323 30.3281H121.399V35.9799C121.399 37.4174 121.914 38.1355 122.947 38.1355C123.421 38.1355 123.814 38.0955 124.125 38.0155L124.198 39.9794C123.676 40.1699 122.988 40.2657 122.135 40.2657C121.088 40.2657 120.269 39.954 119.678 39.3316C119.09 38.7081 118.793 37.6624 118.793 36.1934V30.3257H117.052V28.3848H118.793V26.2534L121.399 25.4867V28.3848H124.323V30.3281Z" fill="white"/>
<path d="M137.515 34.1118C137.515 35.9011 136.99 37.3701 135.942 38.5189C134.843 39.7016 133.385 40.2912 131.567 40.2912C129.816 40.2912 128.421 39.7247 127.381 38.5917C126.341 37.4587 125.821 36.0284 125.821 34.3046C125.821 32.5008 126.356 31.0232 127.429 29.8745C128.501 28.7245 129.946 28.1495 131.764 28.1495C133.516 28.1495 134.926 28.716 135.989 29.8502C137.007 30.9505 137.515 32.371 137.515 34.1118ZM134.763 34.1955C134.763 33.1219 134.527 32.2012 134.051 31.4333C133.495 30.504 132.7 30.0407 131.67 30.0407C130.603 30.0407 129.793 30.5053 129.237 31.4333C128.761 32.2024 128.525 33.1377 128.525 34.244C128.525 35.3176 128.761 36.2383 129.237 37.005C129.811 37.9342 130.612 38.3976 131.646 38.3976C132.659 38.3976 133.454 37.9245 134.027 36.9807C134.516 36.1983 134.763 35.2678 134.763 34.1955Z" fill="white"/>
<path d="M146.137 30.6618C145.874 30.6145 145.594 30.5902 145.301 30.5902C144.368 30.5902 143.646 30.9335 143.138 31.6213C142.697 32.2279 142.475 32.9945 142.475 33.9201V40.028H139.824L139.849 32.0532C139.849 30.7115 139.815 29.4899 139.749 28.3884H142.06L142.157 30.6157H142.23C142.51 29.8502 142.952 29.234 143.556 28.7718C144.147 28.3557 144.786 28.1483 145.474 28.1483C145.719 28.1483 145.94 28.1652 146.137 28.1956V30.6618Z" fill="white"/>
<path d="M158 33.6569C158 34.1202 157.969 34.5109 157.903 34.8299H149.945C149.977 35.9799 150.361 36.8594 151.1 37.4659C151.771 38.0082 152.638 38.2799 153.703 38.2799C154.881 38.2799 155.956 38.0967 156.923 37.7292L157.338 39.5245C156.209 40.0049 154.875 40.2439 153.336 40.2439C151.484 40.2439 150.031 39.7126 148.974 38.6511C147.919 37.5897 147.39 36.1643 147.39 34.3762C147.39 32.6209 147.881 31.1591 148.865 29.9933C149.896 28.7487 151.288 28.1264 153.04 28.1264C154.76 28.1264 156.063 28.7487 156.948 29.9933C157.648 30.982 158 32.2048 158 33.6569ZM155.471 32.986C155.488 32.2193 155.315 31.557 154.956 30.9978C154.497 30.2784 153.791 29.9193 152.842 29.9193C151.975 29.9193 151.269 30.2699 150.73 30.9735C150.289 31.5327 150.026 32.2036 149.945 32.9848H155.471V32.986Z" fill="white"/>
<path d="M67.0417 13.9498C67.0417 15.3776 66.6025 16.4524 65.7254 17.1741C64.9129 17.8401 63.7583 18.1737 62.2628 18.1737C61.5213 18.1737 60.8867 18.1422 60.3555 18.0791V10.2778C61.0485 10.1686 61.795 10.1128 62.6012 10.1128C64.0258 10.1128 65.0996 10.4148 65.8237 11.019C66.6349 11.7019 67.0417 12.6785 67.0417 13.9498ZM65.6669 13.9849C65.6669 13.0594 65.4156 12.3497 64.9129 11.8548C64.4103 11.361 63.6762 11.1136 62.7095 11.1136C62.2989 11.1136 61.9493 11.1403 61.6594 11.1961V17.1268C61.8199 17.1511 62.1135 17.162 62.5403 17.162C63.5381 17.162 64.3083 16.8915 64.8507 16.3505C65.3932 15.8094 65.6669 15.0209 65.6669 13.9849Z" fill="white"/>
<path d="M74.3314 15.1968C74.3314 16.0763 74.0739 16.7969 73.5588 17.3622C73.0188 17.9432 72.3034 18.2332 71.4101 18.2332C70.5491 18.2332 69.8636 17.9554 69.3522 17.3973C68.8421 16.8405 68.587 16.1382 68.587 15.2914C68.587 14.4059 68.8495 13.6792 69.3771 13.1152C69.9046 12.5511 70.6138 12.2684 71.5071 12.2684C72.3681 12.2684 73.0599 12.5462 73.5837 13.103C74.0814 13.6441 74.3314 14.3428 74.3314 15.1968ZM72.979 15.2381C72.979 14.7104 72.8621 14.2579 72.6294 13.8806C72.3557 13.4245 71.9662 13.1964 71.4599 13.1964C70.9361 13.1964 70.5379 13.4245 70.2642 13.8806C70.0303 14.2579 69.9146 14.7176 69.9146 15.2611C69.9146 15.7888 70.0315 16.2413 70.2642 16.6185C70.5466 17.0747 70.9398 17.3027 71.4474 17.3027C71.9451 17.3027 72.3358 17.071 72.6169 16.6064C72.8583 16.2219 72.979 15.7658 72.979 15.2381Z" fill="white"/>
<path d="M84.1058 12.3849L82.2706 18.1034H81.0762L80.316 15.6202C80.1231 15.0003 79.9664 14.384 79.8444 13.7727H79.8208C79.7076 14.401 79.5508 15.0161 79.3492 15.6202L78.5418 18.1034H77.3337L75.608 12.3849H76.948L77.6111 15.1034C77.7716 15.7463 77.9035 16.3589 78.0093 16.9388H78.0329C78.1299 16.4608 78.2904 15.8519 78.5169 15.1155L79.3492 12.3861H80.4118L81.2093 15.0573C81.4022 15.7087 81.5589 16.3359 81.6796 16.94H81.7157C81.804 16.3517 81.9372 15.7245 82.1138 15.0573L82.8255 12.3861H84.1058V12.3849Z" fill="white"/>
<path d="M90.8654 18.1034H89.5615V14.828C89.5615 13.8188 89.1684 13.3141 88.3796 13.3141C87.9926 13.3141 87.6803 13.4524 87.4377 13.7302C87.1976 14.008 87.0757 14.3355 87.0757 14.7104V18.1022H85.7717V14.0189C85.7717 13.5167 85.7556 12.972 85.7245 12.3825H86.8704L86.9313 13.2765H86.9674C87.1192 12.9987 87.3456 12.7694 87.643 12.5863C87.9964 12.3728 88.392 12.2648 88.825 12.2648C89.3724 12.2648 89.8278 12.4371 90.1899 12.7828C90.6402 13.2062 90.8654 13.8382 90.8654 14.6776V18.1034Z" fill="white"/>
<path d="M94.4612 18.1034H93.1585V9.76099H94.4612V18.1034Z" fill="white"/>
<path d="M102.138 15.1968C102.138 16.0763 101.88 16.7969 101.365 17.3622C100.825 17.9432 100.109 18.2332 99.2165 18.2332C98.3542 18.2332 97.6687 17.9554 97.1586 17.3973C96.6484 16.8405 96.3934 16.1382 96.3934 15.2914C96.3934 14.4059 96.6559 13.6792 97.1834 13.1152C97.711 12.5511 98.4202 12.2684 99.3123 12.2684C100.174 12.2684 100.865 12.5462 101.39 13.103C101.888 13.6441 102.138 14.3428 102.138 15.1968ZM100.784 15.2381C100.784 14.7104 100.667 14.2579 100.435 13.8806C100.162 13.4245 99.7714 13.1964 99.2662 13.1964C98.7412 13.1964 98.343 13.4245 98.0706 13.8806C97.8366 14.2579 97.7209 14.7176 97.7209 15.2611C97.7209 15.7888 97.8379 16.2413 98.0706 16.6185C98.353 17.0747 98.7462 17.3027 99.2538 17.3027C99.7515 17.3027 100.141 17.071 100.422 16.6064C100.665 16.2219 100.784 15.7658 100.784 15.2381Z" fill="white"/>
<path d="M108.448 18.1034H107.278L107.18 17.4447H107.144C106.744 17.9699 106.173 18.2332 105.431 18.2332C104.878 18.2332 104.43 18.0597 104.092 17.7152C103.786 17.4022 103.633 17.0128 103.633 16.5506C103.633 15.8519 103.932 15.3193 104.533 14.9506C105.133 14.5818 105.976 14.401 107.062 14.4095V14.3028C107.062 13.5494 106.657 13.1734 105.844 13.1734C105.266 13.1734 104.756 13.3153 104.315 13.5968L104.05 12.7622C104.595 12.4334 105.268 12.2684 106.062 12.2684C107.595 12.2684 108.364 13.0569 108.364 14.6339V16.7399C108.364 17.3112 108.392 17.7661 108.448 18.1034ZM107.095 16.1382V15.2563C105.656 15.232 104.937 15.6165 104.937 16.4087C104.937 16.7071 105.019 16.9303 105.187 17.0795C105.355 17.2287 105.569 17.3027 105.824 17.3027C106.11 17.3027 106.378 17.2142 106.622 17.0383C106.867 16.8612 107.018 16.6367 107.073 16.3614C107.087 16.2995 107.095 16.2243 107.095 16.1382Z" fill="white"/>
<path d="M115.857 18.1034H114.7L114.639 17.1851H114.603C114.234 17.8838 113.604 18.2332 112.72 18.2332C112.013 18.2332 111.424 17.9626 110.958 17.4216C110.491 16.8806 110.259 16.1782 110.259 15.3157C110.259 14.3901 110.511 13.6404 111.019 13.0679C111.51 12.5341 112.112 12.2672 112.829 12.2672C113.617 12.2672 114.168 12.5256 114.481 13.0436H114.506V9.76099H115.811V16.5627C115.811 17.1196 115.826 17.6327 115.857 18.1034ZM114.506 15.6918V14.7383C114.506 14.5733 114.494 14.4398 114.47 14.338C114.397 14.0323 114.239 13.7751 113.999 13.5676C113.756 13.3602 113.464 13.2559 113.126 13.2559C112.64 13.2559 112.259 13.4439 111.979 13.8212C111.702 14.1984 111.561 14.68 111.561 15.2684C111.561 15.8337 111.694 16.2922 111.962 16.6452C112.244 17.0213 112.625 17.2093 113.102 17.2093C113.53 17.2093 113.872 17.0528 114.132 16.7386C114.383 16.4487 114.506 16.0993 114.506 15.6918Z" fill="white"/>
<path d="M127.009 15.1968C127.009 16.0763 126.752 16.7969 126.236 17.3622C125.697 17.9432 124.982 18.2332 124.088 18.2332C123.228 18.2332 122.542 17.9554 122.03 17.3973C121.52 16.8405 121.265 16.1382 121.265 15.2914C121.265 14.4059 121.527 13.6792 122.055 13.1152C122.582 12.5511 123.291 12.2684 124.186 12.2684C125.046 12.2684 125.739 12.5462 126.261 13.103C126.759 13.6441 127.009 14.3428 127.009 15.1968ZM125.658 15.2381C125.658 14.7104 125.541 14.2579 125.308 13.8806C125.033 13.4245 124.645 13.1964 124.138 13.1964C123.615 13.1964 123.217 13.4245 122.942 13.8806C122.708 14.2579 122.592 14.7176 122.592 15.2611C122.592 15.7888 122.709 16.2413 122.942 16.6185C123.224 17.0747 123.617 17.3027 124.125 17.3027C124.623 17.3027 125.015 17.071 125.296 16.6064C125.536 16.2219 125.658 15.7658 125.658 15.2381Z" fill="white"/>
<path d="M134.02 18.1034H132.717V14.828C132.717 13.8188 132.324 13.3141 131.534 13.3141C131.147 13.3141 130.835 13.4524 130.594 13.7302C130.352 14.008 130.232 14.3355 130.232 14.7104V18.1022H128.926V14.0189C128.926 13.5167 128.911 12.972 128.88 12.3825H130.025L130.086 13.2765H130.122C130.275 12.9987 130.502 12.7694 130.798 12.5863C131.152 12.3728 131.547 12.2648 131.981 12.2648C132.527 12.2648 132.982 12.4371 133.345 12.7828C133.796 13.2062 134.02 13.8382 134.02 14.6776V18.1034Z" fill="white"/>
<path d="M142.795 13.3372H141.36V16.1151C141.36 16.8211 141.615 17.1741 142.12 17.1741C142.354 17.1741 142.548 17.1547 142.701 17.1147L142.734 18.0791C142.477 18.1737 142.138 18.221 141.722 18.221C141.207 18.221 140.806 18.0682 140.516 17.7625C140.225 17.4568 140.081 16.9424 140.081 16.2207V13.3372H139.223V12.3849H140.081V11.3368L141.358 10.9607V12.3837H142.794V13.3372H142.795Z" fill="white"/>
<path d="M149.698 18.1034H148.393V14.8523C148.393 13.8272 148 13.3141 147.212 13.3141C146.608 13.3141 146.194 13.6113 145.968 14.2057C145.929 14.3307 145.907 14.4835 145.907 14.6631V18.1021H144.604V9.76099H145.907V13.2074H145.932C146.343 12.5802 146.931 12.2672 147.694 12.2672C148.234 12.2672 148.68 12.4395 149.035 12.7852C149.477 13.2158 149.698 13.8564 149.698 14.7031V18.1034Z" fill="white"/>
<path d="M156.819 14.9736C156.819 15.2017 156.801 15.3933 156.77 15.5498H152.86C152.877 16.1151 153.064 16.5458 153.426 16.8442C153.757 17.1111 154.183 17.2445 154.706 17.2445C155.285 17.2445 155.812 17.1547 156.287 16.974L156.491 17.8571C155.935 18.0924 155.281 18.2101 154.523 18.2101C153.615 18.2101 152.899 17.9493 152.382 17.4277C151.862 16.906 151.604 16.2061 151.604 15.3278C151.604 14.4653 151.844 13.7472 152.328 13.1746C152.833 12.5632 153.517 12.2575 154.379 12.2575C155.222 12.2575 155.863 12.5632 156.296 13.1746C156.646 13.6598 156.819 14.2603 156.819 14.9736ZM155.574 14.6449C155.584 14.2676 155.499 13.9425 155.322 13.6683C155.095 13.3153 154.751 13.1382 154.284 13.1382C153.859 13.1382 153.512 13.3105 153.247 13.6562C153.03 13.9316 152.902 14.2603 152.86 14.6449H155.574Z" fill="white"/>
</svg>
