<svg width="72" height="72" viewBox="0 0 72 72" fill="none" xmlns="http://www.w3.org/2000/svg">
<rect width="72" height="72" rx="8" fill="#F3F6FF"/>
<g clip-path="url(#clip0_20005153_3383)">
<path d="M52.6043 39.9511C52.2809 39.1512 51.3701 38.7646 50.5701 39.0882C49.77 39.4116 49.3836 40.3223 49.707 41.1224L51.5473 45.6744L46.0818 43.2651C45.6862 43.0907 45.236 43.088 44.8383 43.2577C42.9705 44.0546 40.9696 44.4587 38.8911 44.4587C30.5261 44.4587 24.9068 37.9091 24.9068 31.7918C24.9068 24.8073 31.1801 19.125 38.8911 19.125C46.6021 19.125 52.8755 24.8073 52.8755 31.7918C52.8755 32.3368 52.8247 32.9893 52.7363 33.5819C52.609 34.4354 53.1977 35.2305 54.0512 35.3579C54.9048 35.4855 55.6998 34.8965 55.8271 34.043C55.9389 33.2938 56.0005 32.4943 56.0005 31.7918C56.0005 27.5473 54.2031 23.5647 50.9393 20.5776C47.7142 17.6257 43.4353 16 38.8911 16C34.3469 16 30.0682 17.6257 26.8429 20.5775C23.9264 23.2469 22.182 26.7115 21.8437 30.4474C18.1751 32.8768 16.0005 36.7696 16.0005 40.9628C16.0005 43.5822 16.8258 46.0675 18.3966 48.2063L16.1144 53.8518C15.8761 54.4413 16.0188 55.1166 16.4755 55.5592C16.773 55.8478 17.1651 56 17.5633 56C17.7761 55.9999 17.9906 55.9566 18.1933 55.8672L24.7736 52.9664C26.429 53.5826 28.1787 53.8945 29.9848 53.8945C30.0239 53.8945 30.0622 53.8915 30.1006 53.8887C32.7129 53.8689 35.2525 53.1818 37.452 51.8959C39.4221 50.7441 41.0428 49.1617 42.1789 47.2931C43.2882 47.0938 44.3724 46.7929 45.4248 46.3906L53.8077 50.0859C54.0104 50.1752 54.2248 50.2188 54.4376 50.2188C54.8358 50.2187 55.228 50.0665 55.5255 49.778C55.9822 49.3353 56.1249 48.6602 55.8866 48.0706L52.6043 39.9511ZM29.985 50.7656C29.9636 50.7656 29.9429 50.7679 29.9217 50.7688C28.3262 50.7606 26.7906 50.447 25.3565 49.8352C24.9589 49.6654 24.5086 49.6681 24.113 49.8426L20.4539 51.4556L21.6343 48.5356C21.8525 47.9959 21.7524 47.3795 21.3747 46.9364C19.9033 45.2101 19.1255 43.1446 19.1255 40.9628C19.1255 38.4659 20.1759 36.1 22.0137 34.3061C22.5859 37.4253 24.2004 40.409 26.6358 42.7529C29.6663 45.6696 33.6749 47.3592 38.0034 47.5627C35.9712 49.5631 33.0631 50.7656 29.985 50.7656Z" fill="#6366F1"/>
<path d="M38.813 33.4219C39.6759 33.4219 40.3755 32.7223 40.3755 31.8594C40.3755 30.9964 39.6759 30.2969 38.813 30.2969C37.95 30.2969 37.2505 30.9964 37.2505 31.8594C37.2505 32.7223 37.95 33.4219 38.813 33.4219Z" fill="#D946EF"/>
<path d="M45.0625 33.4219C45.9254 33.4219 46.625 32.7223 46.625 31.8594C46.625 30.9964 45.9254 30.2969 45.0625 30.2969C44.1996 30.2969 43.5 30.9964 43.5 31.8594C43.5 32.7223 44.1996 33.4219 45.0625 33.4219Z" fill="#D946EF"/>
<path d="M32.563 33.4219C33.4259 33.4219 34.1255 32.7223 34.1255 31.8594C34.1255 30.9964 33.4259 30.2969 32.563 30.2969C31.7 30.2969 31.0005 30.9964 31.0005 31.8594C31.0005 32.7223 31.7 33.4219 32.563 33.4219Z" fill="#D946EF"/>
</g>
<defs>
<clipPath id="clip0_20005153_3383">
<rect width="40" height="40" fill="white" transform="translate(16 16)"/>
</clipPath>
</defs>
</svg>
