<svg width="56" height="56" viewBox="0 0 56 56" fill="none" xmlns="http://www.w3.org/2000/svg">
<path d="M52.4298 49.5362H3.50261C1.60543 49.5362 0.0078125 47.9885 0.0078125 46.0414V10.694C0.0078125 8.79684 1.55551 7.19922 3.50261 7.19922H52.4298C54.3269 7.19922 55.9246 8.74691 55.9246 10.694V46.0414C55.9246 47.9885 54.3769 49.5362 52.4298 49.5362Z" fill="#E3E3E3"/>
<path opacity="0.1" d="M6.99645 49.5396L27.9153 32.7146L28.0651 31.8159L6.49719 16.2891L6.44727 48.7907L6.99645 49.5396Z" fill="#070A11"/>
<path d="M3.50261 49.5363C1.55551 49.5363 0.0078125 47.9886 0.0078125 46.0415V10.6442C0.0078125 8.69714 1.55551 8.34766 3.50261 8.34766C5.44971 8.34766 6.99741 8.74706 6.99741 10.6442V49.5363H3.50261Z" fill="#D54B3D"/>
<path d="M3.50261 8.84691C5.99889 8.84691 6.49815 9.5958 6.49815 10.6442V49.0371H3.50261C1.85506 49.0371 0.507069 47.6891 0.507069 46.0415V10.6442C0.507069 9.54587 1.00633 8.84691 3.50261 8.84691ZM3.50261 8.34766C1.55551 8.34766 0.0078125 8.74706 0.0078125 10.6442V46.0415C0.0078125 47.9886 1.55551 49.5363 3.50261 49.5363H6.99741V10.6442C6.99741 8.69714 5.44971 8.34766 3.50261 8.34766Z" fill="#D72B27"/>
<path d="M52.4284 49.5363H48.9336V10.5444C48.9336 8.59728 50.4813 8.34766 52.4284 8.34766C54.3755 8.34766 55.9232 8.59728 55.9232 10.5444V46.0915C55.9232 47.9886 54.3755 49.5363 52.4284 49.5363Z" fill="#D54B3D"/>
<path d="M52.4284 8.84691C54.6751 8.84691 55.4239 9.29624 55.4239 10.5444V46.0915C55.4239 47.739 54.0759 49.087 52.4284 49.087H49.4329V10.5444C49.4329 9.24632 50.1817 8.84691 52.4284 8.84691ZM52.4284 8.34766C50.4813 8.34766 48.9336 8.59728 48.9336 10.5444V49.5863H52.4284C54.3755 49.5863 55.9232 48.0386 55.9232 46.0915V10.5444C55.9232 8.59728 54.3755 8.34766 52.4284 8.34766Z" fill="#D72B27"/>
<path d="M37.4506 49.5357L0.298828 12.0954L2.25298 12.8903L28.1145 31.5125L55.9231 11.1211L55.9231 46.0908C55.9231 47.988 54.3754 49.5357 52.4283 49.5357H37.4506Z" fill="url(#paint0_linear_20005153_3620)"/>
<path d="M27.9155 32.7106L1.50483 13.5392C-0.0428636 12.3909 -0.492195 10.1942 0.656096 8.64646C1.80439 7.09877 4.05104 6.74929 5.64866 7.89758L27.9654 24.1234L50.432 7.69788C51.9797 6.54959 54.1764 6.89907 55.3247 8.49669C56.473 10.0444 56.1235 12.2411 54.5259 13.3894L27.9155 32.7106Z" fill="#D54B3D"/>
<path d="M52.4293 7.49926C53.3778 7.49926 54.2765 7.94859 54.8756 8.7474C55.8242 10.0954 55.5247 11.9426 54.2266 12.9412L27.9158 32.1126L1.80464 13.1409C0.456645 12.1423 0.107165 10.2452 1.05575 8.9471C1.60494 8.19822 2.55352 7.69896 3.55204 7.69896C4.20107 7.69896 4.8501 7.89866 5.34936 8.29807L27.6162 24.474L27.9158 24.6737L28.2153 24.474L50.6319 8.04844C51.1811 7.69896 51.7802 7.49926 52.4293 7.49926ZM52.4293 7C51.7303 7 50.9814 7.1997 50.3823 7.64903L27.9158 24.0746L5.59899 7.84874C4.99988 7.39941 4.251 7.1997 3.50211 7.1997C2.40375 7.1997 1.30538 7.69896 0.606422 8.64755C-0.491943 10.1952 -0.042612 12.392 1.50508 13.5403L27.9158 32.7616L54.4762 13.3905C56.0239 12.2422 56.3734 10.0954 55.275 8.49777C54.5761 7.49926 53.5276 7 52.4293 7Z" fill="#D72B27"/>
<defs>
<linearGradient id="paint0_linear_20005153_3620" x1="0.300992" y1="30.3275" x2="55.941" y2="30.3275" gradientUnits="userSpaceOnUse">
<stop stop-opacity="0.1"/>
<stop offset="1" stop-opacity="0.2"/>
</linearGradient>
</defs>
</svg>
