<svg width="56" height="56" viewBox="0 0 56 56" fill="none" xmlns="http://www.w3.org/2000/svg">
<path d="M28 56C43.464 56 56 43.464 56 28C56 12.536 43.464 0 28 0C12.536 0 0 12.536 0 28C0 43.464 12.536 56 28 56Z" fill="url(#paint0_linear_20005153_3633)"/>
<path fill-rule="evenodd" clip-rule="evenodd" d="M11.2002 16.8049C11.2002 13.7094 13.6982 11.2 16.8052 11.2H39.1952C42.2908 11.2 44.8002 13.698 44.8002 16.8049V39.195C44.8002 42.2905 42.3022 44.7999 39.1952 44.7999H16.8052C13.7096 44.7999 11.2002 42.3019 11.2002 39.195V16.8049ZM30.1842 17.585V28.251C30.1842 29.365 31.0866 30.268 32.1997 30.268H38.4167C39.5295 30.268 40.4322 29.3649 40.4322 28.251V17.585C40.4322 16.4709 39.5298 15.568 38.4167 15.568H32.1997C31.0869 15.568 30.1842 16.471 30.1842 17.585ZM15.5682 36.6534V17.5826C15.5682 16.4699 16.4709 15.568 17.5837 15.568H23.8007C24.9138 15.568 25.8162 16.47 25.8162 17.5826V36.6534C25.8162 37.766 24.9135 38.668 23.8007 38.668H17.5837C16.4705 38.668 15.5682 37.766 15.5682 36.6534Z" fill="white"/>
<defs>
<linearGradient id="paint0_linear_20005153_3633" x1="0" y1="0" x2="0" y2="56" gradientUnits="userSpaceOnUse">
<stop stop-color="#0091E6"/>
<stop offset="1" stop-color="#0079BF"/>
</linearGradient>
</defs>
</svg>
