<svg width="113" height="24" viewBox="0 0 113 24" fill="none" xmlns="http://www.w3.org/2000/svg">
<path d="M18.0951 10.697C17.7892 11.002 17.5549 11.3702 17.409 11.7751C17.2631 12.1802 17.2091 12.6121 17.2508 13.0402L17.2363 13.0258C17.2792 13.5297 17.2106 14.0367 17.0354 14.5117C16.8602 14.9866 16.5825 15.4178 16.2218 15.7754C15.861 16.133 15.4259 16.4082 14.9467 16.5818C14.4675 16.7555 13.9559 16.8235 13.4476 16.781L13.4621 16.7954C12.854 16.7393 12.2432 16.8704 11.713 17.171C11.1829 17.4715 10.7591 17.9268 10.4996 18.4748C10.2401 19.0228 10.1574 19.6367 10.2628 20.233C10.3683 20.8293 10.6567 21.3788 11.0888 21.8066C11.5208 22.2345 12.0755 22.5198 12.6771 22.6238C13.2789 22.7278 13.8982 22.6452 14.4508 22.3875C15.0035 22.1298 15.4624 21.7094 15.7652 21.1837C16.0679 20.6579 16.1997 20.0525 16.1426 19.4498L16.1579 19.4642C16.115 18.9603 16.1835 18.4532 16.3588 17.9782C16.534 17.5034 16.8117 17.0721 17.1724 16.7145C17.5332 16.357 17.9684 16.0817 18.4475 15.9081C18.9267 15.7344 19.4382 15.6664 19.9467 15.709L19.9313 15.6946C20.428 15.7388 20.9281 15.6581 21.385 15.4598C21.8418 15.2616 22.2409 14.9522 22.545 14.5605C22.8492 14.1687 23.0487 13.7071 23.1249 13.2186C23.2011 12.7301 23.1518 12.2304 22.9813 11.7658C22.8108 11.3012 22.5248 10.8868 22.1497 10.561C21.7746 10.2351 21.3226 10.0084 20.8356 9.90183C20.3485 9.79527 19.8422 9.81223 19.3636 9.95119C18.885 10.0902 18.4495 10.3467 18.0975 10.697H18.0951Z" fill="#B4B7C9"/>
<path d="M12.141 14.9088L12.1257 14.8944C12.5577 14.9376 12.9941 14.885 13.4032 14.7405C13.8123 14.596 14.1839 14.3633 14.4911 14.0591C14.7982 13.7548 15.0334 13.3867 15.1794 12.9813C15.3255 12.576 15.3789 12.1436 15.3357 11.7152L15.351 11.7296C15.3081 11.2257 15.3767 10.7187 15.5518 10.2437C15.7271 9.76885 16.0048 9.33757 16.3655 8.97997C16.7263 8.62245 17.1614 8.34717 17.6406 8.17357C18.1198 7.99985 18.6313 7.93191 19.1397 7.97445L19.1244 7.96005C19.7326 8.01669 20.3435 7.88593 20.874 7.58573C21.4045 7.28552 21.8286 6.83042 22.0885 6.28253C22.3484 5.73464 22.4314 5.12061 22.3263 4.52421C22.2213 3.9278 21.9331 3.37805 21.5011 2.94994C21.0692 2.52184 20.5145 2.23621 19.9128 2.13203C19.3111 2.02785 18.6916 2.11017 18.1388 2.36779C17.586 2.6254 17.1269 3.04576 16.824 3.57153C16.521 4.09729 16.3892 4.70286 16.4463 5.30565L16.4318 5.29045C16.4748 5.79436 16.4064 6.30151 16.2312 6.77649C16.0561 7.25146 15.7783 7.68281 15.4176 8.04045C15.0568 8.39797 14.6216 8.67325 14.1424 8.84685C13.6631 9.02045 13.1515 9.08829 12.643 9.04565L12.6576 9.06085C12.2255 9.01773 11.7891 9.07029 11.38 9.21477C10.971 9.35917 10.5994 9.59197 10.2922 9.89621C9.98497 10.2004 9.74985 10.5686 9.60375 10.974C9.45774 11.3793 9.40439 11.8117 9.44757 12.24L9.43304 12.2256C9.47582 12.7295 9.40713 13.2365 9.2319 13.7114C9.05659 14.1862 8.77893 14.6175 8.41822 14.975C8.05748 15.3325 7.6224 15.6077 7.14331 15.7815C6.66422 15.9552 6.15266 16.0232 5.64431 15.9808L5.65884 15.9952C5.05068 15.9386 4.43969 16.0693 3.90923 16.3696C3.37878 16.6698 2.95466 17.1248 2.69476 17.6728C2.43484 18.2207 2.35177 18.8347 2.45688 19.4311C2.562 20.0275 2.85018 20.5772 3.28211 21.0053C3.71404 21.4335 4.26869 21.7191 4.87043 21.8232C5.47216 21.9274 6.09167 21.8451 6.64445 21.5875C7.19723 21.3299 7.65639 20.9096 7.95928 20.3838C8.2622 19.858 8.39409 19.2524 8.33694 18.6496L8.35228 18.664C8.30934 18.1601 8.37795 17.6531 8.55318 17.1781C8.72833 16.7032 9.00606 16.272 9.36678 15.9144C9.72757 15.5568 10.1627 15.2816 10.6418 15.108C11.121 14.9343 11.6326 14.8663 12.141 14.9088Z" fill="#B4B7C9"/>
<path d="M6.7316 13.3032C7.03753 12.9983 7.27174 12.6301 7.41754 12.2251C7.56335 11.82 7.61714 11.388 7.57507 10.96L7.59039 10.9744C7.54745 10.4704 7.61603 9.96317 7.79135 9.48813C7.96667 9.01309 8.24451 8.58173 8.60547 8.22413C8.96642 7.86654 9.40171 7.59135 9.88107 7.41779C10.3604 7.24423 10.8722 7.17647 11.3807 7.21925L11.3654 7.20485C11.9733 7.2613 12.5841 7.13051 13.1143 6.83032C13.6445 6.53014 14.0684 6.07515 14.3282 5.52743C14.5879 4.97971 14.6709 4.36591 14.5658 3.76972C14.4607 3.17354 14.1726 2.624 13.7408 2.19605C13.3091 1.7681 12.7546 1.48256 12.1531 1.37839C11.5516 1.2742 10.9323 1.35646 10.3797 1.61391C9.82708 1.87137 9.36805 2.29151 9.06521 2.81703C8.76229 3.34255 8.63032 3.94787 8.68731 4.55045L8.67278 4.53605C8.71572 5.03993 8.64711 5.54703 8.47188 6.02194C8.29665 6.49685 8.01901 6.92814 7.65825 7.28571C7.2975 7.64327 6.86235 7.9185 6.3832 8.09213C5.90405 8.26581 5.39243 8.33381 4.88405 8.29125L4.89858 8.30565C4.40184 8.26149 3.90189 8.34237 3.44506 8.54069C2.98824 8.73901 2.5893 9.04845 2.28525 9.44029C1.98119 9.83205 1.78184 10.2936 1.70566 10.7821C1.62949 11.2707 1.67896 11.7704 1.84949 12.2348C2.02001 12.6994 2.30609 13.1137 2.68119 13.4395C3.05629 13.7653 3.50829 13.992 3.99531 14.0985C4.48231 14.205 4.98858 14.188 5.46719 14.049C5.94579 13.91 6.38125 13.6535 6.73321 13.3032H6.7316Z" fill="#B4B7C9"/>
<path d="M31.7344 5.32397H34.1316V16.8864H31.7344V5.32397Z" fill="#B4B7C9"/>
<path d="M35.4894 12.9273C35.4861 12.0964 35.7316 11.2831 36.1949 10.5906C36.6582 9.89816 37.3184 9.35752 38.092 9.03728C38.8656 8.71696 39.7176 8.63144 40.5402 8.79152C41.3629 8.9516 42.1191 9.35 42.7131 9.9364C43.307 10.5227 43.7121 11.2706 43.8769 12.0854C44.0417 12.9001 43.9588 13.745 43.6388 14.513C43.3187 15.2809 42.7759 15.9375 42.0791 16.3994C41.3822 16.8614 40.5628 17.1081 39.7245 17.1081C39.168 17.1144 38.6158 17.0106 38.1002 16.803C37.5846 16.5953 37.116 16.2878 36.7217 15.8986C36.3273 15.5094 36.0153 15.0461 35.8038 14.5359C35.5921 14.0258 35.4853 13.4789 35.4894 12.9273ZM41.5623 12.9273C41.5523 12.5691 41.436 12.2218 41.228 11.9288C41.0199 11.6358 40.7293 11.4101 40.3926 11.2799C40.0558 11.1497 39.6878 11.1207 39.3345 11.1967C38.9812 11.2727 38.6584 11.4502 38.4063 11.707C38.1543 11.9638 37.9842 12.2886 37.9174 12.6408C37.8506 12.9929 37.8899 13.3567 38.0306 13.6868C38.1713 14.0169 38.407 14.2985 38.7082 14.4965C39.0095 14.6945 39.363 14.8001 39.7245 14.8001C39.972 14.8066 40.2183 14.7622 40.4477 14.6698C40.6771 14.5773 40.8847 14.4387 41.0574 14.2628C41.23 14.0868 41.3641 13.8773 41.4509 13.6474C41.5379 13.4176 41.5758 13.1724 41.5623 12.9273Z" fill="#B4B7C9"/>
<path d="M53.5137 8.96715V16.4871C53.5137 19.1479 51.42 20.2727 49.2947 20.2727C48.5465 20.3283 47.7973 20.1784 47.1292 19.8398C46.4612 19.5011 45.9001 18.9866 45.5076 18.3527L47.5529 17.1807C47.7179 17.5111 47.9808 17.7837 48.3063 17.962C48.6319 18.1403 49.0047 18.2158 49.3747 18.1783C49.6111 18.2108 49.852 18.1902 50.0794 18.1179C50.3067 18.0457 50.5147 17.9237 50.6881 17.7611C50.8615 17.5983 50.9957 17.3991 51.081 17.178C51.1661 16.957 51.2 16.7198 51.1802 16.4839V15.7599C50.8995 16.1003 50.5423 16.3708 50.137 16.5496C49.7317 16.7284 49.2899 16.8106 48.8468 16.7895C47.7925 16.7566 46.7925 16.3183 46.0585 15.5675C45.3245 14.8167 44.9141 13.8122 44.9141 12.7667C44.9141 11.7213 45.3245 10.7168 46.0585 9.96603C46.7925 9.21515 47.7925 8.77691 48.8468 8.74395C49.2899 8.72291 49.7317 8.80507 50.137 8.98387C50.5423 9.16267 50.8995 9.43315 51.1802 9.77355V8.96555L53.5137 8.96715ZM51.181 12.7679C51.1972 12.3851 51.0973 12.0061 50.8943 11.6799C50.6913 11.3537 50.3944 11.0952 50.0419 10.9377C49.6894 10.7801 49.2975 10.7307 48.9164 10.7959C48.5354 10.861 48.1827 11.0376 47.9038 11.3031C47.6249 11.5686 47.4326 11.9107 47.3515 12.2854C47.2704 12.6601 47.3043 13.0503 47.449 13.4058C47.5935 13.7612 47.8421 14.0657 48.1627 14.2799C48.4833 14.4942 48.8613 14.6084 49.2479 14.6079C49.4998 14.6254 49.7526 14.5903 49.9899 14.5051C50.2273 14.4198 50.444 14.2861 50.6261 14.1128C50.8082 13.9395 50.9517 13.7303 51.0473 13.4986C51.1429 13.267 51.1885 13.0181 51.181 12.7679Z" fill="#B4B7C9"/>
<path d="M54.8712 12.9273C54.8679 12.0964 55.1134 11.2831 55.5767 10.5906C56.04 9.89816 56.7003 9.35752 57.4738 9.03728C58.2474 8.71696 59.0994 8.63144 59.9221 8.79152C60.7447 8.9516 61.5009 9.35 62.0949 9.9364C62.6889 10.5227 63.0939 11.2706 63.2587 12.0854C63.4235 12.9001 63.3406 13.745 63.0206 14.513C62.7006 15.2809 62.1578 15.9375 61.461 16.3994C60.7641 16.8614 59.9447 17.1081 59.1063 17.1081C58.5498 17.1144 57.9976 17.0106 57.4821 16.803C56.9665 16.5953 56.4978 16.2878 56.1036 15.8986C55.7092 15.5094 55.3971 15.0461 55.1856 14.5359C54.974 14.0258 54.8671 13.4789 54.8712 12.9273ZM60.9441 12.9273C60.9341 12.5691 60.8178 12.2218 60.6098 11.9288C60.4017 11.6358 60.1112 11.4101 59.7744 11.2799C59.4376 11.1497 59.0696 11.1207 58.7164 11.1967C58.3631 11.2727 58.0402 11.4502 57.7881 11.707C57.5362 11.9638 57.366 12.2886 57.2992 12.6408C57.2323 12.9929 57.2717 13.3567 57.4124 13.6868C57.5531 14.0169 57.7888 14.2985 58.09 14.4965C58.3913 14.6945 58.7448 14.8001 59.1063 14.8001C59.3538 14.8066 59.6001 14.7622 59.8295 14.6698C60.059 14.5773 60.2666 14.4387 60.4392 14.2628C60.6119 14.0868 60.7459 13.8773 60.8328 13.6474C60.9197 13.4176 60.9576 13.1724 60.9441 12.9273Z" fill="#B4B7C9"/>
<path d="M64.459 6.84479C64.459 6.56283 64.5433 6.28721 64.7014 6.05278C64.8594 5.81834 65.0841 5.63561 65.3469 5.52771C65.6097 5.41981 65.8989 5.39158 66.178 5.44658C66.4569 5.50159 66.7133 5.63737 66.9144 5.83674C67.1155 6.03611 67.2525 6.29013 67.308 6.56667C67.3635 6.84321 67.335 7.12985 67.2262 7.39034C67.1173 7.65084 66.933 7.87349 66.6964 8.03015C66.4599 8.18679 66.1818 8.27039 65.8973 8.27039C65.5171 8.26663 65.1534 8.11527 64.8844 7.84869C64.6156 7.58215 64.4628 7.22172 64.459 6.84479ZM64.7011 8.96719H67.0992V16.8872H64.6979L64.7011 8.96719Z" fill="#B4B7C9"/>
<path d="M77.4504 12.9272C77.4781 13.4507 77.4012 13.9743 77.2239 14.4682C77.0467 14.962 76.7728 15.4163 76.4178 15.8048C76.0629 16.1933 75.6339 16.5085 75.1557 16.7322C74.6774 16.9558 74.1593 17.0835 73.631 17.108C73.1867 17.132 72.7427 17.0578 72.331 16.8907C71.9193 16.7235 71.5503 16.4676 71.2507 16.1416V20.0544H68.8535V8.96722H71.2507V9.71122C71.5504 9.38546 71.9195 9.12978 72.3312 8.96282C72.7429 8.79578 73.1868 8.72162 73.631 8.74562C74.1593 8.77002 74.6776 8.8977 75.156 9.12138C75.6344 9.34506 76.0634 9.66026 76.4184 10.0489C76.7734 10.4375 77.0473 10.8919 77.2244 11.3859C77.4015 11.8799 77.4783 12.4037 77.4504 12.9272ZM75.0532 12.9272C75.0438 12.5566 74.9244 12.1969 74.7097 11.8931C74.4951 11.5895 74.1949 11.3552 73.8467 11.2199C73.4985 11.0844 73.1177 11.0538 72.7519 11.1319C72.3862 11.2099 72.0519 11.3931 71.7907 11.6585C71.5295 11.924 71.3532 12.2599 71.2837 12.6243C71.2142 12.9886 71.2546 13.3651 71.4 13.7067C71.5453 14.0484 71.7891 14.3399 72.1008 14.545C72.4125 14.7499 72.7782 14.8593 73.1524 14.8592C73.4092 14.8706 73.6655 14.8279 73.9046 14.7342C74.1436 14.6405 74.36 14.4977 74.5394 14.3153C74.7189 14.1328 74.8574 13.9149 74.946 13.6757C75.0345 13.4365 75.0711 13.1814 75.0532 12.9272Z" fill="#B4B7C9"/>
<path d="M84.8479 14.5104C84.8479 16.332 83.2505 17.108 81.5249 17.108C80.8275 17.1706 80.1275 17.0245 79.5149 16.6884C78.9024 16.3524 78.4057 15.842 78.0889 15.2232L80.1656 14.0512C80.2497 14.3372 80.4301 14.5861 80.6769 14.7561C80.9235 14.9262 81.2222 15.0072 81.5216 14.9856C82.0963 14.9856 82.3845 14.8112 82.3845 14.4952C82.3845 13.6232 78.4529 14.0832 78.4529 11.3432C78.4529 9.61603 79.9235 8.74563 81.5854 8.74563C82.2101 8.72603 82.8284 8.87291 83.3765 9.17091C83.9245 9.46899 84.3822 9.90723 84.701 10.44L82.6557 11.5328C82.5661 11.3254 82.4168 11.1487 82.2263 11.0248C82.0358 10.9008 81.813 10.8352 81.5854 10.836C81.1697 10.836 80.9139 10.996 80.9139 11.2792C80.9171 12.1824 84.8479 11.58 84.8479 14.5104Z" fill="#B4B7C9"/>
<path d="M93.6044 8.96729V16.8873H91.2072V16.1425C90.9303 16.4711 90.5792 16.7301 90.1821 16.8981C89.785 17.0661 89.354 17.1383 88.9229 17.1089C87.3087 17.1089 85.9365 15.9689 85.9365 13.8289V8.96729H88.3337V13.4809C88.3136 13.6695 88.3353 13.8602 88.3975 14.0397C88.4588 14.2192 88.5597 14.3832 88.6921 14.5202C88.8245 14.6573 88.9851 14.7641 89.1635 14.8333C89.3411 14.9025 89.5323 14.9324 89.7236 14.9209C90.6026 14.9209 91.2096 14.4145 91.2096 13.2897V8.96969L93.6044 8.96729Z" fill="#B4B7C9"/>
<path d="M107.35 12.0239V16.8863H104.953V12.2295C104.953 11.4375 104.569 10.9311 103.803 10.9311C103.004 10.9311 102.556 11.4855 102.556 12.4199V16.8863H100.159V12.2295C100.159 11.4375 99.7758 10.9311 99.0082 10.9311C98.2091 10.9311 97.762 11.4855 97.762 12.4199V16.8863H95.3647V8.96629H97.762V9.69429C98.0106 9.37133 98.3366 9.11517 98.7103 8.94933C99.0849 8.78341 99.4949 8.71309 99.9033 8.74469C100.313 8.72477 100.722 8.81061 101.089 8.99373C101.455 9.17677 101.768 9.45101 101.996 9.78949C102.262 9.43533 102.614 9.15373 103.019 8.97101C103.424 8.78829 103.87 8.71045 104.314 8.74469C106.148 8.74549 107.35 10.0439 107.35 12.0239Z" fill="#B4B7C9"/>
<path d="M109.378 8.91825C110.36 8.91825 111.157 8.12881 111.157 7.15505C111.157 6.18125 110.36 5.39185 109.378 5.39185C108.395 5.39185 107.599 6.18125 107.599 7.15505C107.599 8.12881 108.395 8.91825 109.378 8.91825Z" fill="#B4B7C9"/>
</svg>
