<svg width="113" height="28" viewBox="0 0 113 28" fill="none" xmlns="http://www.w3.org/2000/svg">
<path d="M13.029 5.47656V1.97656H1.729V26.0236H13.029V22.5236C10.7142 22.5236 8.49416 21.6256 6.85738 20.0271C5.22057 18.4286 4.30102 16.2607 4.30102 14.0001C4.30102 11.7395 5.22057 9.57149 6.85738 7.97305C8.49416 6.37458 10.7142 5.47656 13.029 5.47656Z" fill="#B4B7C9"/>
<path d="M13.0288 5.47656V22.5236C15.3436 22.5236 17.5637 21.6256 19.2005 20.0271C20.8373 18.4286 21.7568 16.2607 21.7568 14.0001C21.7568 11.7395 20.8373 9.57149 19.2005 7.97305C17.5637 6.37458 15.3436 5.47656 13.0288 5.47656Z" fill="#B4B7C9"/>
<path d="M28.0981 7.61768H30.628V19.5177H28.0981V7.61768Z" fill="#B4B7C9"/>
<path d="M32.0448 15.4411C32.0448 14.585 32.3052 13.7481 32.7927 13.0366C33.2803 12.325 33.9733 11.7709 34.7837 11.4444C35.5942 11.1179 36.4856 11.0337 37.3451 11.2026C38.2046 11.3714 38.9934 11.7856 39.6115 12.3927C40.2297 12.9999 40.6494 13.7726 40.8173 14.6129C40.9852 15.4532 40.894 16.3233 40.555 17.1129C40.216 17.9024 39.6447 18.576 38.9133 19.048C38.1819 19.5201 37.3235 19.7695 36.4468 19.7646C35.8653 19.7691 35.2888 19.6601 34.751 19.444C34.2133 19.228 33.725 18.9093 33.315 18.5067C32.905 18.104 32.5815 17.6254 32.3633 17.099C32.1453 16.5726 32.037 16.0089 32.0448 15.4411ZM38.3863 15.4411C38.3764 15.072 38.2552 14.7139 38.038 14.4118C37.8207 14.1095 37.5172 13.8766 37.165 13.742C36.8129 13.6074 36.4281 13.5772 36.0585 13.6552C35.6889 13.7331 35.3511 13.9157 35.0872 14.1802C34.8234 14.4446 34.6452 14.7792 34.575 15.142C34.5049 15.5049 34.5458 15.8798 34.6927 16.22C34.8396 16.5602 35.0859 16.8507 35.4009 17.0548C35.7159 17.2591 36.0855 17.368 36.4636 17.3682C36.7211 17.3731 36.9768 17.3261 37.2148 17.2301C37.4527 17.1341 37.6678 16.9912 37.8467 16.8104C38.0256 16.6295 38.1643 16.4145 38.2543 16.179C38.3442 15.9434 38.3835 15.6922 38.3695 15.4411H38.3863Z" fill="#B4B7C9"/>
<path d="M50.8582 11.3646V19.114C50.8582 21.8481 48.6656 23.0093 46.4478 23.0093C45.6655 23.072 44.8808 22.9202 44.1822 22.571C43.4834 22.2218 42.8983 21.6891 42.4928 21.0328L44.6263 19.8305C44.7992 20.1709 45.0742 20.4517 45.4147 20.6356C45.7552 20.8195 46.145 20.8978 46.5321 20.8599C46.7788 20.8895 47.0291 20.8657 47.2651 20.7899C47.5012 20.714 47.7172 20.5883 47.8977 20.4214C48.0782 20.2546 48.2187 20.0509 48.3092 19.8249C48.3997 19.5989 48.4379 19.3561 48.4211 19.114V18.3646C48.1267 18.7132 47.7531 18.9899 47.3301 19.1729C46.9071 19.3559 46.4462 19.44 45.984 19.4187C44.8657 19.4187 43.7933 18.9849 43.0026 18.2127C42.2118 17.4405 41.7676 16.3931 41.7676 15.3011C41.7676 14.209 42.2118 13.1617 43.0026 12.3895C43.7933 11.6173 44.8657 11.1834 45.984 11.1834C46.4462 11.1621 46.9071 11.2463 47.3301 11.4292C47.7531 11.6122 48.1267 11.8889 48.4211 12.2375V11.414L50.8582 11.3646ZM48.4211 15.2764C48.4379 14.8824 48.3336 14.4924 48.1217 14.1568C47.9098 13.8211 47.6 13.555 47.2319 13.3927C46.8639 13.2304 46.4546 13.1793 46.0566 13.246C45.6587 13.3127 45.2901 13.4942 44.9986 13.767C44.7071 14.0398 44.5058 14.3916 44.4206 14.7771C44.3355 15.1626 44.3703 15.5641 44.5206 15.9301C44.6711 16.2961 44.9301 16.6097 45.2645 16.8308C45.599 17.0518 45.9934 17.1701 46.3972 17.1705C46.6607 17.189 46.9253 17.1533 47.1737 17.0659C47.4222 16.9783 47.6492 16.8409 47.8399 16.6624C48.0307 16.4839 48.1809 16.2683 48.281 16.0296C48.3811 15.7908 48.4288 15.5342 48.4211 15.2764Z" fill="#B4B7C9"/>
<path d="M52.2835 15.4412C52.2835 14.5857 52.5434 13.7495 53.0302 13.0383C53.5171 12.3271 54.209 11.773 55.0184 11.446C55.8279 11.119 56.7185 11.0339 57.5775 11.2014C58.4366 11.3689 59.2254 11.7815 59.8443 12.3869C60.4631 12.9925 60.8841 13.7636 61.0539 14.6028C61.2238 15.442 61.1349 16.3116 60.7986 17.1015C60.4622 17.8914 59.8934 18.566 59.1643 19.0401C58.4351 19.5142 57.5783 19.7664 56.7023 19.7648C56.1198 19.7703 55.5419 19.6621 55.0027 19.4467C54.4635 19.2313 53.9737 18.9129 53.5622 18.5102C53.1506 18.1075 52.8255 17.6286 52.6059 17.1016C52.3864 16.5746 52.2768 16.0101 52.2835 15.4412ZM58.625 15.4412C58.615 15.0718 58.4936 14.7134 58.276 14.411C58.0585 14.1087 57.7543 13.8757 57.4017 13.7414C57.0491 13.6071 56.6638 13.5773 56.2941 13.656C55.9243 13.7345 55.5865 13.918 55.3229 14.1833C55.0594 14.4485 54.8819 14.7839 54.8128 15.1472C54.7435 15.5106 54.7856 15.8858 54.9338 16.2258C55.0819 16.5659 55.3296 16.8557 55.6458 17.059C55.9618 17.2621 56.3323 17.3698 56.7107 17.3683C56.9682 17.3732 57.2239 17.3262 57.4618 17.2302C57.6998 17.1342 57.9149 16.9914 58.0938 16.8105C58.2727 16.6297 58.4114 16.4146 58.5014 16.1791C58.5913 15.9435 58.6306 15.6923 58.6166 15.4412H58.625Z" fill="#B4B7C9"/>
<path d="M62.2935 9.18244C62.2935 8.89255 62.3815 8.6091 62.5464 8.36805C62.7114 8.12697 62.9458 7.93909 63.2201 7.82813C63.4944 7.71719 63.7962 7.68816 64.0874 7.74472C64.3785 7.80128 64.646 7.94089 64.8559 8.1459C65.0658 8.35092 65.2088 8.61214 65.2667 8.89642C65.3246 9.18079 65.2949 9.47553 65.1813 9.74342C65.0677 10.0112 64.8752 10.2402 64.6284 10.4013C64.3816 10.5623 64.0914 10.6483 63.7945 10.6483C63.3977 10.644 63.0185 10.4882 62.738 10.2142C62.4574 9.94025 62.2978 9.56991 62.2935 9.18244ZM62.538 11.3648H65.0679V19.5177H62.538V11.3648Z" fill="#B4B7C9"/>
<path d="M75.8956 15.4411C75.924 15.9833 75.8423 16.5257 75.6551 17.0369C75.4681 17.5482 75.1793 18.0182 74.8054 18.42C74.4315 18.8219 73.98 19.1476 73.4768 19.3783C72.9736 19.6091 72.4286 19.7403 71.8732 19.7646C71.4019 19.7953 70.9295 19.7216 70.4915 19.549C70.0535 19.3764 69.661 19.1095 69.3433 18.7682V22.7952H66.8135V11.3646H69.3433V12.1305C69.6614 11.7901 70.0542 11.5245 70.4923 11.3533C70.9304 11.1821 71.4025 11.11 71.8732 11.1423C72.4264 11.1666 72.9692 11.2971 73.4707 11.5263C73.9722 11.7555 74.4226 12.079 74.7961 12.4781C75.1697 12.8773 75.459 13.3444 75.6476 13.8528C75.8363 14.3612 75.9206 14.9009 75.8956 15.4411ZM73.3658 15.4411C73.3558 15.0586 73.2304 14.6875 73.0054 14.3743C72.7805 14.0611 72.4657 13.8196 72.1009 13.6804C71.736 13.541 71.3371 13.5101 70.9542 13.5912C70.5713 13.6723 70.2215 13.8621 69.9485 14.1365C69.6756 14.411 69.4917 14.7581 69.4199 15.1342C69.348 15.5104 69.3915 15.8988 69.5448 16.251C69.6981 16.603 69.9544 16.9031 70.2816 17.1136C70.6088 17.3241 70.9923 17.4355 71.3841 17.434C71.6524 17.4452 71.9201 17.4008 72.1697 17.3038C72.4193 17.2067 72.645 17.0593 72.8322 16.8712C73.0193 16.683 73.1635 16.4582 73.2555 16.2118C73.3475 15.9654 73.385 15.7027 73.3658 15.4411Z" fill="#B4B7C9"/>
<path d="M83.5945 17.0717C83.5945 18.9493 81.908 19.7481 80.1202 19.7481C79.391 19.8122 78.659 19.6613 78.0186 19.3148C77.3782 18.9683 76.8589 18.4423 76.5278 17.8046L78.7035 16.6023C78.7897 16.8961 78.9766 17.1521 79.2329 17.3275C79.4893 17.503 79.7995 17.587 80.1118 17.5658C80.7105 17.5658 81.0141 17.3846 81.0141 17.0552C81.0141 16.1576 76.9073 16.6352 76.9073 13.8105C76.9073 12.0317 78.4421 11.1423 80.1792 11.1423C80.8395 11.1134 81.4956 11.2597 82.0776 11.5656C82.6596 11.8716 83.1459 12.3258 83.4849 12.8799L81.3092 13.9999C81.2131 13.7874 81.0561 13.6068 80.8571 13.4796C80.658 13.3524 80.4255 13.2843 80.1877 13.2834C79.7492 13.2834 79.4878 13.4481 79.4878 13.7364C79.4878 14.6752 83.5945 14.0576 83.5945 17.0717Z" fill="#B4B7C9"/>
<path d="M92.7611 11.3647V19.5177H90.2313V18.7518C89.9437 19.0909 89.5785 19.3591 89.1662 19.5351C88.753 19.7111 88.3035 19.7897 87.8532 19.7647C86.1666 19.7647 84.7246 18.5871 84.7246 16.3883V11.3647H87.2545V16.0177C87.2342 16.2122 87.2578 16.4086 87.3236 16.5934C87.3894 16.7781 87.4948 16.9468 87.6331 17.0878C87.7722 17.2287 87.9409 17.3385 88.1273 17.4098C88.3136 17.4809 88.5135 17.5117 88.7133 17.5C89.6241 17.5 90.265 16.973 90.265 15.853V11.3647H92.7611Z" fill="#B4B7C9"/>
<path d="M107.097 14.5107V19.5177H104.567V14.7248C104.567 13.9012 104.171 13.3907 103.37 13.3907C102.569 13.3907 102.063 13.9589 102.063 14.9224V19.5177H99.5329V14.7248C99.5329 13.9012 99.1366 13.3907 98.3355 13.3907C97.5344 13.3907 97.0284 13.9589 97.0284 14.9224V19.5177H94.4985V11.3648H97.0284V12.1142C97.2906 11.7831 97.6322 11.5209 98.0243 11.3513C98.4156 11.1816 98.8448 11.1098 99.2715 11.1424C99.6991 11.1206 100.126 11.2079 100.509 11.3956C100.891 11.5833 101.218 11.865 101.456 12.213C101.734 11.8493 102.102 11.5604 102.525 11.3733C102.947 11.186 103.413 11.1066 103.876 11.1424C105.849 11.1424 107.097 12.4765 107.097 14.5107Z" fill="#B4B7C9"/>
<path d="M109.222 11.3154C110.247 11.3154 111.077 10.5042 111.077 9.50366C111.077 8.50307 110.247 7.69189 109.222 7.69189C108.197 7.69189 107.367 8.50307 107.367 9.50366C107.367 10.5042 108.197 11.3154 109.222 11.3154Z" fill="#B4B7C9"/>
</svg>
