<svg width="113" height="28" viewBox="0 0 113 28" fill="none" xmlns="http://www.w3.org/2000/svg">
<path d="M33.5991 8.81123H36.333V19.425H33.5991V8.81123ZM37.4174 15.4175C37.4174 12.7925 39.0942 11.2262 41.6823 11.2262C44.2703 11.2262 45.9471 12.7925 45.9471 15.4175C45.9471 18.0425 44.3068 19.6175 41.6823 19.6175C39.0578 19.6175 37.4174 18.0862 37.4174 15.4175ZM43.2041 15.4175C43.2041 13.9737 42.6118 13.125 41.6823 13.125C40.7528 13.125 40.1695 14 40.1695 15.4175C40.1695 16.835 40.7436 17.6925 41.6823 17.6925C42.6209 17.6925 43.2041 16.8875 43.2041 15.4262V15.4175ZM46.9769 19.9412H49.6014C49.7263 20.2077 49.9375 20.4283 50.2035 20.5702C50.4695 20.712 50.7761 20.7677 51.0777 20.7287C52.1165 20.7287 52.6633 20.1862 52.6633 19.3987V17.9287H52.6086C52.3908 18.3793 52.0373 18.7567 51.5939 19.0126C51.1505 19.2684 50.6373 19.3907 50.1208 19.3637C48.1251 19.3637 46.8037 17.9025 46.8037 15.3912C46.8037 12.88 48.0613 11.2962 50.1573 11.2962C50.69 11.2762 51.2164 11.413 51.6659 11.6881C52.1154 11.9634 52.4667 12.364 52.6724 12.8362V11.375H55.4063V19.3375C55.4063 21.2537 53.6475 22.4437 51.0503 22.4437C48.6354 22.4437 47.1318 21.4025 46.9769 19.95V19.9412ZM52.6724 15.4087C52.6724 14.1312 52.0619 13.3262 51.0959 13.3262C50.1299 13.3262 49.5376 14.1225 49.5376 15.4087C49.5376 16.695 50.1208 17.4212 51.0959 17.4212C52.071 17.4212 52.6724 16.7125 52.6724 15.4175V15.4087ZM56.4361 15.4087C56.4361 12.7837 58.1128 11.2175 60.7009 11.2175C63.289 11.2175 64.9748 12.7837 64.9748 15.4087C64.9748 18.0337 63.3345 19.6087 60.7009 19.6087C58.0673 19.6087 56.4361 18.0862 56.4361 15.4175V15.4087ZM62.2227 15.4087C62.2227 13.965 61.6304 13.1162 60.7009 13.1162C59.7714 13.1162 59.2337 14 59.2337 15.4262C59.2337 16.8525 59.8078 17.7012 60.7373 17.7012C61.6669 17.7012 62.2227 16.8875 62.2227 15.4262V15.4087ZM66.0137 9.46748C66.0065 9.20244 66.0815 8.94134 66.2291 8.71726C66.3767 8.49317 66.5902 8.31621 66.8426 8.2088C67.0951 8.10138 67.375 8.06835 67.647 8.1139C67.919 8.15945 68.1708 8.28152 68.3705 8.46463C68.5703 8.64775 68.7088 8.88368 68.7686 9.1425C68.8285 9.40133 68.807 9.67135 68.7068 9.91845C68.6066 10.1655 68.4323 10.3784 68.2059 10.5303C67.9796 10.6821 67.7114 10.766 67.4353 10.7712C67.2523 10.7833 67.0687 10.7589 66.896 10.6996C66.7233 10.6402 66.5652 10.5473 66.4317 10.4265C66.2982 10.3057 66.1922 10.1597 66.1202 9.99764C66.0483 9.83568 66.012 9.66111 66.0137 9.48498V9.46748ZM66.0137 11.3925H68.7476V19.425H66.0137V11.3925ZM78.6715 15.4087C78.6715 18.0337 77.4595 19.53 75.3818 19.53C74.849 19.5628 74.3186 19.4378 73.8622 19.1718C73.4058 18.9057 73.0456 18.5115 72.8302 18.0425H72.7755V21.9975H70.0416V11.375H72.7755V12.81H72.8302C73.0356 12.3332 73.389 11.9288 73.8423 11.6517C74.2955 11.3745 74.8267 11.2382 75.3636 11.2612C77.4595 11.2962 78.708 12.8012 78.708 15.4262L78.6715 15.4087ZM75.9377 15.4087C75.9377 14.1312 75.3271 13.3175 74.3703 13.3175C73.4134 13.3175 72.8028 14.14 72.7937 15.4087C72.7846 16.6775 73.4134 17.4912 74.3703 17.4912C75.3271 17.4912 75.9377 16.695 75.9377 15.4262V15.4087ZM83.3647 11.2087C85.6338 11.2087 87.0098 12.2412 87.0736 13.895H84.5858C84.5858 13.3262 84.0937 12.9675 83.3373 12.9675C82.581 12.9675 82.2438 13.2475 82.2438 13.6587C82.2438 14.07 82.5445 14.2012 83.1551 14.3237L84.9048 14.665C86.5724 15.0062 87.2832 15.6537 87.2832 16.87C87.2832 18.5325 85.7067 19.6 83.3829 19.6C81.0591 19.6 79.5373 18.5325 79.4188 16.8962H82.0524C82.1344 17.4912 82.6265 17.8412 83.4285 17.8412C84.2304 17.8412 84.5949 17.5875 84.5949 17.1675C84.5949 16.7475 84.3398 16.66 83.6836 16.5287L82.1071 16.205C80.4759 15.8812 79.6193 15.05 79.6193 13.825C79.6375 12.25 81.1047 11.2262 83.3647 11.2262V11.2087ZM96.4052 19.4075H93.7716V17.9112H93.7169C93.572 18.4136 93.2531 18.8533 92.812 19.1573C92.371 19.4613 91.8351 19.6114 91.2929 19.5825C90.8775 19.6051 90.462 19.542 90.0742 19.3972C89.6865 19.2523 89.3356 19.0294 89.0454 18.7432C88.7551 18.4571 88.5322 18.1143 88.3917 17.7383C88.2512 17.3623 88.1964 16.9618 88.231 16.5637V11.375H90.9648V15.96C90.9648 16.9137 91.4752 17.4212 92.3227 17.4212C92.5213 17.4216 92.7182 17.3812 92.8995 17.3028C93.0799 17.2243 93.2422 17.1095 93.3734 16.9661C93.5037 16.8227 93.6021 16.6541 93.6595 16.4716C93.7169 16.289 93.7343 16.0967 93.7078 15.9075V11.375H96.4417L96.4052 19.4075ZM97.7266 11.375H100.369V12.9237H100.424C100.569 12.428 100.882 11.9925 101.312 11.6853C101.742 11.3782 102.267 11.2167 102.803 11.2262C103.348 11.1843 103.89 11.341 104.321 11.6653C104.751 11.9896 105.039 12.4575 105.126 12.9762H105.181C105.346 12.452 105.689 11.9956 106.154 11.6788C106.619 11.3619 107.181 11.2027 107.751 11.2262C108.123 11.2142 108.493 11.2775 108.837 11.4119C109.182 11.5462 109.493 11.7488 109.751 12.0062C110.009 12.2637 110.208 12.5704 110.334 12.9063C110.46 13.2422 110.512 13.6 110.485 13.9562V19.425H107.751V14.6562C107.751 13.7812 107.341 13.3787 106.575 13.3787C106.405 13.3773 106.235 13.4111 106.079 13.4778C105.924 13.5445 105.784 13.6425 105.671 13.7652C105.558 13.888 105.473 14.0325 105.423 14.1892C105.373 14.346 105.36 14.5112 105.381 14.6737V19.425H102.784V14.6212C102.784 13.8162 102.374 13.3787 101.627 13.3787C101.455 13.3788 101.283 13.414 101.127 13.482C100.969 13.5501 100.828 13.6494 100.714 13.7734C100.599 13.8973 100.513 14.0433 100.461 14.2016C100.41 14.3598 100.394 14.5266 100.415 14.6912V19.425H97.6811L97.7266 11.375Z" fill="#B4B7C9"/>
<path d="M25.9536 9.29253C25.4899 8.27434 24.8761 7.32547 24.131 6.47503C23.0297 5.18033 21.6553 4.12424 20.0983 3.3763C18.5413 2.62837 16.8369 2.20553 15.0974 2.13561C13.3579 2.06568 11.6228 2.35027 10.006 2.97064C8.38938 3.59101 6.92785 4.5331 5.71768 5.73489C4.50751 6.93668 3.57613 8.37093 2.98483 9.94327C2.39354 11.5156 2.15574 13.1903 2.2871 14.8572C2.41846 16.5241 2.91598 18.1454 3.74693 19.6144C4.57788 21.0834 5.72342 22.3668 7.10814 23.38C7.99665 24.0432 8.97843 24.5823 10.0243 24.9813C11.4905 25.5583 13.0599 25.8554 14.6445 25.8563C17.9155 25.8494 21.0501 24.5974 23.3615 22.3749C25.6727 20.1524 26.9719 17.1408 26.9743 14C26.9766 12.38 26.6292 10.7771 25.9536 9.29253ZM14.6354 4.54127C16.0585 4.54113 17.4643 4.83977 18.7544 5.41627C18.4398 5.54679 18.109 5.63796 17.7702 5.68753C16.6554 5.84248 15.6226 6.33946 14.826 7.1043C14.0295 7.86913 13.5119 8.8608 13.3505 9.93128C13.2797 10.5316 12.9952 11.0901 12.5453 11.5126C12.0954 11.935 11.5076 12.1954 10.8809 12.25C9.766 12.405 8.73321 12.902 7.93666 13.6668C7.14011 14.4317 6.62251 15.4233 6.46112 16.4938C6.40648 17.0646 6.15283 17.6011 5.74121 18.0163C5.03099 16.5754 4.71195 14.9854 4.81376 13.3943C4.91557 11.8032 5.43492 10.2626 6.32349 8.91602C7.21206 7.56947 8.44097 6.4606 9.89586 5.69264C11.3507 4.92468 12.9843 4.52259 14.6445 4.52377L14.6354 4.54127ZM7.09903 20.125C7.20838 20.0288 7.31774 19.9413 7.42709 19.8363C8.23782 19.0816 8.75822 18.0853 8.90338 17.01C8.96223 16.4056 9.24329 15.841 9.6962 15.4175C10.1321 14.982 10.7187 14.7143 11.3456 14.665C12.4605 14.5101 13.4933 14.0131 14.2898 13.2482C15.0864 12.4834 15.604 11.4918 15.7654 10.4213C15.8048 9.78909 16.0873 9.19348 16.5582 8.75003C17.0048 8.3229 17.597 8.06499 18.2259 8.02377C19.2501 7.88847 20.2053 7.45127 20.9597 6.77253C21.8188 7.45684 22.5466 8.28006 23.1104 9.20503C23.0758 9.24992 23.036 9.29104 22.9919 9.32753C22.557 9.76695 21.9711 10.0405 21.3425 10.0975C20.2264 10.2498 19.1921 10.7459 18.395 11.5112C17.598 12.2765 17.0813 13.2697 16.9227 14.3413C16.8585 14.9436 16.5794 15.5062 16.1326 15.9335C15.6858 16.361 15.099 16.6269 14.4714 16.6863C13.3532 16.84 12.3166 17.3361 11.5154 18.1005C10.7143 18.8651 10.1913 19.8574 10.0243 20.93C9.97523 21.3576 9.82223 21.7683 9.57773 22.1288C8.64275 21.5957 7.80536 20.9188 7.09903 20.125ZM14.6354 23.5025C13.7107 23.5035 12.7904 23.3798 11.9015 23.135C12.2056 22.5908 12.4033 21.9976 12.4847 21.385C12.5486 20.784 12.8265 20.2225 13.2714 19.7953C13.7163 19.3682 14.301 19.1014 14.927 19.04C16.0435 18.8868 17.0784 18.3906 17.8768 17.6256C18.675 16.8607 19.194 15.868 19.3559 14.7963C19.4198 14.1952 19.6976 13.6338 20.1425 13.2066C20.5874 12.7794 21.1722 12.5126 21.7981 12.4513C22.6383 12.3464 23.4392 12.046 24.131 11.5763C24.5152 12.9744 24.5607 14.4385 24.2641 15.8562C23.9675 17.2738 23.3365 18.6075 22.4197 19.7547C21.503 20.9019 20.3248 21.8322 18.9753 22.4743C17.626 23.1164 16.1414 23.4532 14.6354 23.4588V23.5025Z" fill="#B4B7C9"/>
</svg>
