<svg width="56" height="56" viewBox="0 0 56 56" fill="none" xmlns="http://www.w3.org/2000/svg">
<path fill-rule="evenodd" clip-rule="evenodd" d="M53.231 40.0173L53.2259 40.0357C53.0563 40.6562 48.8606 56.005 33.1038 56.0004C19.2647 55.9961 12.7052 43.8261 12.7052 43.8261C11.6966 43.883 10.7234 43.721 9.82579 43.3874C5.76554 41.8783 3.81744 37.1787 5.21836 33.236L2.98683 31.5107C-5.6574 24.8485 18.8301 -5.63756 27.4894 1.26082C27.5332 1.29568 29.5564 2.94331 29.5564 2.94331C32.6656 1.03311 35.7447 0.000478807 38.2477 0.000366284C40.0252 0.000141456 41.5118 0.520787 42.5129 1.61752C44.7604 4.07951 43.9527 8.78095 40.8837 13.5409C41.5438 14.1749 42.0908 15.0366 42.4813 15.892C43.457 16.6536 44.0894 17.8115 44.4036 19.4107C44.598 20.3983 44.7067 21.6188 44.8027 22.6953C44.8794 23.5569 44.948 24.3262 45.0456 24.8101C45.2527 24.9046 45.3859 24.9646 45.483 25.0083C45.5743 25.0494 45.6338 25.0762 45.6928 25.1039C45.8029 25.1556 45.9115 25.2105 46.2228 25.3679C46.2765 25.3951 46.3362 25.4253 46.4031 25.459C47.3232 25.9242 48.4435 26.4908 49.6817 27.6961C51.8826 28.254 52.723 30.6213 51.4352 32.237C51.4006 32.2803 51.2451 32.4667 51.0841 32.6522C51.09 32.6678 51.1048 32.6973 51.1268 32.741L51.1269 32.7411C51.249 32.9833 51.5913 33.6622 51.8493 34.8553C52.7613 35.0732 53.4878 35.6413 53.869 36.4651C54.5284 38.0774 53.231 40.0173 53.231 40.0173ZM46.8853 51.9831V52.6463H47.1363V51.9831H47.3931V51.7738H46.6318V51.9831H46.8853ZM47.4697 52.6463V51.7738H47.8275L47.9845 52.2759L48.1391 51.7738H48.4971V52.6463H48.2681V52.0147L48.081 52.6463H47.8858L47.6987 52.0164V52.6463H47.4697Z" fill="#5B453E"/>
<path fill-rule="evenodd" clip-rule="evenodd" d="M51.8242 39.0807C51.6255 39.8244 50.6517 43.4696 46.7539 46.5437C41.34 50.8142 34.2267 50.382 31.5401 47.9888C30.1049 46.6414 29.4837 44.7143 29.4837 44.7143C29.4837 44.7143 29.3212 45.8002 29.2935 46.2268C28.2108 44.3786 28.3024 42.1212 28.3024 42.1212C28.3024 42.1212 27.7248 43.2022 27.4604 43.8077C26.6637 41.7721 27.0753 39.6702 27.0753 39.6702L26.445 40.6133C26.445 40.6133 26.1493 38.3095 26.8751 36.3904C27.6507 34.3398 29.1546 32.8501 29.4518 32.6644C28.3108 32.3004 26.9963 31.2568 26.9941 31.2549C26.9941 31.2549 27.5168 31.2896 27.8801 31.2059C27.8801 31.2059 25.5732 29.547 25.1688 27.0089C25.503 27.4234 26.2042 27.8917 26.2042 27.8917C25.9772 27.2275 25.8399 25.7498 26.052 24.2954L26.0527 24.2938C26.4891 21.5155 28.7703 19.7063 31.3541 19.729C31.8479 19.7334 32.3124 19.7556 32.7556 19.7769C34.7818 19.874 36.3623 19.9498 38.2545 18.1984C38.2811 18.1737 38.3075 18.1492 38.3336 18.125C38.7859 17.7048 39.1695 17.3485 39.8171 17.2044C39.8299 17.2015 39.846 17.1968 39.866 17.191C39.9587 17.164 40.1336 17.113 40.4362 17.113C40.8082 17.113 41.1665 17.197 41.4943 17.3929C42.7452 18.1402 43.0148 20.0892 43.1493 21.5183C43.4531 24.7581 43.4961 25.6652 43.9715 26.1303C44.274 26.4262 44.7514 26.5432 45.5824 26.9682C45.6808 27.0184 45.7804 27.0683 45.8811 27.1188C46.8246 27.5921 47.8736 28.1184 49.0514 29.3842C49.058 29.3913 49.0673 29.3955 49.077 29.3957C50.1764 29.4221 50.7431 30.291 50.2358 30.9237C46.5465 35.3461 41.3939 37.4638 35.6514 37.641C35.4672 37.6457 35.1048 37.6542 34.9504 37.6578C34.9058 37.6589 34.8785 37.6595 34.8779 37.6595C32.5585 37.73 31.8034 40.7418 33.2586 42.5531C34.1784 43.6979 35.9475 44.0741 37.4036 44.0798L37.4242 44.0724C43.7028 44.2001 50.0106 39.7405 51.1 37.2812C51.1079 37.2635 51.1744 37.1069 51.1744 37.1069C51.1744 37.1069 51.1165 37.1751 51.0464 37.2327C51.043 37.235 51.0265 37.2502 50.9971 37.2771C50.4021 37.8228 44.5632 43.1768 37.3746 42.9745C37.3746 42.9745 36.5621 42.9576 35.7971 42.7788C34.7882 42.5432 34.0217 42.0983 33.7284 41.0889C33.6412 40.904 33.5911 40.2644 33.707 39.8339C34.0225 38.7739 34.5509 38.7646 35.3685 38.7503C35.4908 38.7482 35.6197 38.7459 35.7552 38.74H35.7553C39.4745 38.6157 42.4756 37.677 44.7247 36.6052C47.1231 35.4622 48.951 33.9896 49.6095 33.2462C50.4637 34.6898 50.4586 36.5436 50.4586 36.5436C50.4586 36.5436 50.7936 36.4261 51.2371 36.4261C52.6311 36.4262 52.918 37.6777 51.8628 38.948C51.8563 38.9608 51.8441 39.0062 51.8242 39.0807ZM17.1713 32.276C17.1713 32.276 16.9977 32.9971 16.6533 33.8757C16.3227 31.0636 15.1469 30.4686 15.1469 30.4687C14.4657 30.1519 13.7126 29.976 12.9208 29.976C9.8657 29.976 7.38916 32.593 7.38916 35.8215C7.38916 39.0498 9.8657 41.6668 12.9208 41.6668C16.3617 41.6668 18.9736 38.3782 18.3657 34.7856C18.3657 34.7856 18.0148 35.6077 17.688 36.0442C17.7671 34.7581 17.5655 33.4857 17.1713 32.276Z" fill="#F2D8B4"/>
<path d="M5.64035 31.1107C5.61829 31.105 3.53903 29.6251 3.24324 29.1377C1.49379 26.2745 4.53743 20.3933 6.70336 17.0503C12.0559 8.78848 20.9652 2.2683 25.0117 3.19943L29.1671 5.27978C27.5536 6.20027 25.9931 7.33089 25.0583 8.08285L24.1741 8.80202C24.1741 8.80202 21.5919 10.4881 20.3077 11.551C15.1595 15.8116 10.0906 22.4072 8.21078 28.7738C8.21078 28.7736 6.66624 29.5173 5.64035 31.1107Z" fill="#207EAC"/>
<path d="M26.0558 3.20696C21.9311 2.19676 12.8499 9.2705 7.3939 18.234C7.39232 18.2366 7.39074 18.2393 7.38916 18.2419L7.41119 18.2443L11.7586 21.7774C16.532 13.9557 22.5314 9.92259 22.7006 9.80412L22.0113 5.01677L23.3026 4.37856L25.8941 5.24486L25.6958 4.35115L26.0558 3.20696Z" fill="#4FB1D3"/>
<path d="M32.2777 4.3726L27.557 7.53501L27.2267 7.78118L23.0405 4.5237L22.9443 3.90766L24.3998 3.24397C24.4746 3.26701 27.2057 4.10933 27.3209 4.14486L27.3696 2.41765L27.5033 2.0256L28.782 1.55896C28.7838 1.56017 32.2728 4.3686 32.2777 4.3726Z" fill="#FACD55"/>
<path d="M37.4691 1.55896C34.8023 1.55896 31.8083 3.03787 29.5115 4.4919C29.1893 4.69178 28.8697 4.90096 28.5565 5.11415L27.3548 4.05199L27.7912 5.65142C27.6262 5.77092 27.4652 5.89007 27.3075 6.00854L24.8243 5.2091L26.4674 6.65923C26.0922 6.959 25.7571 7.23963 25.4791 7.48263L21.539 4.05233L21.7476 5.58973L24.6113 8.25007C24.6113 8.25007 22.077 10.0489 20.8166 11.1831C15.7641 15.7288 10.7892 22.7661 8.94434 29.559L9.04919 29.4968C9.06343 29.4884 9.07779 29.4816 9.09204 29.4733C9.14338 29.4442 9.1945 29.4164 9.24583 29.3891C9.27879 29.3717 9.31153 29.354 9.34448 29.3374C9.39724 29.3107 9.4501 29.2858 9.50296 29.2613C9.53406 29.2467 9.56539 29.2314 9.5966 29.2178C9.65381 29.1924 9.71092 29.1695 9.76813 29.1467C9.79456 29.1361 9.82099 29.1246 9.84742 29.1147C9.93073 29.0832 10.0137 29.0541 10.0965 29.0281C11.3508 28.6336 13.0572 28.3799 15.0548 29.2743C16.0579 26.6065 17.2564 23.8923 19.1451 21.2842C20.6766 19.1695 22.1486 17.2817 23.9155 16.2434C27.2609 12.9298 36.2777 9.41613 39.1664 12.4618C39.8494 11.2837 40.4422 10.1684 40.9306 8.77037C42.1359 5.4083 42.1579 1.55896 37.4691 1.55896Z" fill="#070A11"/>
<path d="M27.6117 4.66627L26.6322 3.11072L26.0562 3.88569L26.4009 4.49488L27.6117 4.66627Z" fill="#070A11"/>
<path fill-rule="evenodd" clip-rule="evenodd" d="M36.6705 1.55896C35.2062 1.71252 33.6795 2.24527 32.2551 2.91956C27.4467 5.23517 24.0906 8.65102 23.6881 9.06071C23.6708 9.07831 23.659 9.09036 23.6527 9.09654C23.2533 9.48993 22.8552 9.89741 22.4603 10.3168C21.2853 11.5641 20.1375 12.915 19.0618 14.3041C17.1599 16.7601 16.3685 17.9062 15.167 20.2408C15.1668 20.2411 15.175 20.231 15.1911 20.2112C15.6256 19.6771 21.7941 12.0936 23.3726 10.4859C26.3765 7.4262 31.2934 4.0187 31.3445 3.98834C33.4441 2.66913 35.2162 1.89491 36.6705 1.55896ZM48.5614 32.3555C49.389 33.7863 49.384 35.6235 49.384 35.6235C49.3982 36.1508 49.3813 36.4417 49.3526 36.8495C47.6742 38.3046 42.67 42.169 36.7075 41.9972C36.7075 41.9972 35.9202 41.9806 35.179 41.8034C34.2069 41.5712 33.467 41.1335 33.1793 40.1446L33.1747 40.1286L33.1742 40.1274C33.1697 40.1172 33.1327 40.0281 33.1089 39.8362L33.1079 39.8287L33.1072 39.8214C33.1018 39.7736 33.0973 39.7227 33.0941 39.6696L33.0931 39.6511L33.0928 39.645C33.0886 39.5601 33.0875 39.4629 33.091 39.3525C33.0925 39.3138 33.0948 39.2752 33.0979 39.2366L33.0984 39.2367L33.0988 39.2245C33.1089 39.1052 33.1266 38.9887 33.1541 38.8846C33.4598 37.834 33.9718 37.8248 34.7639 37.8106C34.8824 37.8085 35.0072 37.8063 35.1386 37.8004H35.1387C38.742 37.6772 41.6497 36.7468 43.8287 35.6846C46.1524 34.5518 47.9233 33.0923 48.5614 32.3555Z" fill="#FFFFFE"/>
<path fill-rule="evenodd" clip-rule="evenodd" d="M42.4012 23.1162C42.6627 25.9028 42.7247 26.5645 43.2771 26.9572C43.2923 26.9721 43.3078 26.9848 43.3234 26.9951C42.9526 27.1033 42.6207 27.205 42.3264 27.298C41.7842 26.5629 41.0312 25.8756 39.4834 25.9873C37.4321 26.1634 35.802 27.9972 36.0971 29.8183C35.1224 30.31 34.2145 30.8199 33.3702 31.3391C31.977 31.4884 30.2799 31.9694 28.7831 33.2226C27.6549 32.8673 26.355 31.8488 26.3527 31.8469C26.3527 31.8469 26.8697 31.8808 27.2289 31.7991C27.2289 31.7991 27.2041 31.7813 27.1591 31.7469C27.1572 31.7444 27.1549 31.742 27.1522 31.7399C27.1215 31.7159 27.0903 31.6921 27.0586 31.668C26.522 31.2366 24.8813 29.7678 24.5479 27.7027C24.8783 28.1073 25.5718 28.5643 25.5718 28.5643C25.5634 28.5405 25.5554 28.5155 25.5473 28.4896C25.5482 28.4869 25.5488 28.484 25.549 28.4811L25.5492 28.4777C25.5492 28.4777 25.4529 28.2032 25.3854 27.6742C25.3668 27.5255 25.3516 27.3672 25.3401 27.2014C25.3328 27.0896 25.3272 26.971 25.3239 26.8452C25.4088 25.8013 25.675 24.9242 26.3382 24.0944C27.3052 22.8847 28.6321 22.3931 30.163 22.4167C30.5845 22.422 31.0103 22.4655 31.4542 22.5109C31.8803 22.5544 32.3231 22.5997 32.7946 22.6144C34.1094 22.6555 35.376 22.4388 36.7087 21.8412C38.0255 21.2194 38.77 20.5018 39.5492 19.3875C39.8237 19.087 40.308 18.6473 40.7364 18.666C41.0205 18.666 41.2176 18.8055 41.3579 18.9269C42.036 19.8341 42.2237 21.2462 42.3284 22.3441C42.3544 22.6182 42.3785 22.8751 42.4012 23.1162ZM38.397 28.4921C38.7134 27.4816 40.1489 26.9956 41.0155 27.6062C40.6283 27.8294 40.509 28.4764 40.7452 28.8518C40.2554 28.8428 39.7519 29.0345 39.3978 29.3741C39.4307 28.8931 38.8985 28.5172 38.397 28.4921ZM43.6321 48.2224C44.4068 47.8186 45.1658 47.337 45.8937 46.7703C49.7476 43.7704 50.7108 40.2131 50.9075 39.4866C50.9273 39.4137 50.9393 39.3693 50.9457 39.3568C49.1616 41.6423 46.8277 43.4586 44.3303 44.7159C42.2769 45.7504 40.7407 46.1103 40.7407 46.1103C40.7407 46.1103 41.8403 47.5477 43.6321 48.2224ZM31.9233 39.9371C32.1963 38.9305 32.9673 38.133 34.149 38.0975L34.2216 38.0958C34.3749 38.0922 34.7322 38.084 34.9139 38.0794C40.5925 37.9065 45.6878 35.8395 49.336 31.5233C49.8376 30.9058 49.2773 30.0578 48.1901 30.032L48.1818 30.0319L48.1745 30.032C48.0805 30.1305 48.026 30.2706 47.9544 30.4543C47.8861 30.6298 47.8022 30.8452 47.6536 31.1021C46.5439 33.0121 45.0091 33.8856 42.9624 34.8989C39.6355 36.5399 37.1577 36.906 35.3693 37.1702C33.7847 37.4043 32.7413 37.5585 32.1278 38.4487C31.7483 39.0064 31.7411 39.6293 31.9233 39.9371ZM44.018 39.224C44.0024 39.2243 43.9862 39.2278 43.9604 39.2335C43.8794 39.252 43.6999 39.3101 43.4399 39.3942C41.7132 39.9526 36.438 41.6585 32.9345 40.5683C32.9164 40.7868 32.9223 41.246 33.0126 41.4455L33.013 41.4467C33.6228 41.5678 34.3945 41.6452 35.2902 41.6452C40.5946 41.6452 44.4173 39.2558 44.018 39.224ZM14.3464 38.7317L14.3418 38.7348C11.8492 38.9169 9.54442 35.761 10.9052 34.0208C11.0915 33.8818 11.251 33.8019 11.314 33.7703C11.3251 33.7648 11.3332 33.7607 11.3379 33.7581C11.3743 33.739 11.4116 33.7234 11.4503 33.7072C11.4771 33.696 11.5046 33.6846 11.533 33.6714C11.5602 33.6601 11.5916 33.6506 11.6261 33.641C11.7367 33.6101 11.7604 33.6014 11.7847 33.5945C11.8089 33.5876 11.8336 33.5825 11.9453 33.5591H11.9451C13.1556 33.305 14.0096 33.8357 14.3814 34.3576C14.5527 34.5977 14.5895 34.7783 14.6162 34.9093C14.6249 34.9518 14.6325 34.9892 14.6433 35.0216L14.6435 35.0232C14.3537 34.6226 13.9793 34.5348 13.9793 34.5348C13.6638 34.4103 13.0574 34.6005 13.0178 35.277C12.9995 35.5372 13.0778 35.8288 13.3025 36.0851L13.3041 36.087C13.3121 36.096 13.3203 36.1052 13.3288 36.1142C13.3365 36.1226 13.3444 36.1309 13.3523 36.1389C13.5365 36.328 13.7554 36.4656 13.9644 36.597C14.3231 36.8225 14.6528 37.0297 14.7281 37.4475C14.8048 37.9072 14.6693 38.3877 14.3464 38.7317Z" fill="#E2B986"/>
<path fill-rule="evenodd" clip-rule="evenodd" d="M39.0061 12.153C37.0002 10.5846 31.1451 11.0287 25.2835 14.8921C22.5997 16.6609 20.6317 18.5956 19.1147 20.6057C19.1147 20.6057 21.4564 16.0791 26.6018 13.0851C26.2431 13.0265 25.3996 13.1291 25.1577 13.1585C25.1411 13.1605 25.1274 13.1622 25.1168 13.1635C26.0515 12.3459 27.7881 11.8001 28.988 11.552C28.6368 11.3248 27.8004 11.2674 27.3852 11.2562C27.272 11.2532 27.2644 11.2535 27.15 11.2584C27.1404 11.2588 27.13 11.2592 27.1188 11.2597C28.2474 10.618 30.3401 10.2414 32.2424 10.5816C32.0034 10.2589 31.4611 10.0234 31.0811 9.90891C31.0479 9.8988 30.8987 9.86111 30.8987 9.86111C30.8987 9.86111 31.0258 9.83056 31.0419 9.82738C32.1879 9.60299 33.5266 9.84529 34.5856 10.2777C34.4654 9.99385 34.1714 9.66332 33.9505 9.4541C33.928 9.43267 33.796 9.3363 33.796 9.3363C34.904 9.56981 35.9657 10.0612 36.7646 10.6192C36.656 10.4058 36.3873 10.0467 36.2016 9.85056C37.2603 10.1586 38.4487 10.9262 38.958 12.0267C38.9706 12.0515 39.0028 12.1421 39.0064 12.1523L39.0061 12.153ZM34.3077 26.8408C34.422 27.0108 34.4526 27.1391 34.4065 27.1925C34.3236 27.291 34.0487 27.1811 33.6402 27.0178L33.6402 27.0177C33.5949 26.9996 33.5479 26.9809 33.4994 26.9616C32.2558 26.4899 31.3396 26.418 29.7177 27.0423L29.5881 27.0928C29.2461 27.2264 29.0016 27.322 28.8773 27.3032C28.6498 27.2688 28.87 26.8454 29.3671 26.4346C30.3673 25.6232 31.741 25.3714 32.9149 25.8157C33.4287 26.008 34.0058 26.3918 34.3077 26.8408ZM34.061 28.1348C33.7201 27.8699 33.0922 27.6924 32.4404 27.805C32.3385 27.8208 32.2425 27.8487 32.1488 27.8759C32.1166 27.8853 32.0847 27.8946 32.0529 27.9032C32.0073 27.9147 31.9637 27.931 31.9213 27.9492C31.6517 28.0646 31.4184 28.189 31.192 28.4097C30.9323 28.6649 30.8585 28.902 30.9336 28.9603C30.9979 29.0125 31.1426 28.9519 31.3625 28.8599L31.3975 28.8452L31.465 28.8172C32.3958 28.4238 33.0545 28.4133 33.682 28.4578L33.7267 28.4609C34.0046 28.4801 34.1896 28.4928 34.2342 28.4132C34.2674 28.3563 34.2072 28.2482 34.061 28.1348ZM14.0173 32.9902L14.0171 32.99C13.5084 32.5728 12.7875 32.3754 11.9498 32.5559H11.95L11.9347 32.5592C11.8365 32.5804 11.8131 32.5854 11.7902 32.5921C11.783 32.5942 11.7758 32.5965 11.7664 32.5995L11.7664 32.5995L11.7663 32.5995C11.7441 32.6065 11.7095 32.6175 11.6323 32.6397C11.5978 32.6494 11.5666 32.6592 11.5396 32.6706C11.5115 32.684 11.4842 32.6957 11.4577 32.7071C11.419 32.7237 11.3817 32.7396 11.3454 32.7593C11.3407 32.762 11.3327 32.7661 11.3219 32.7716C11.2146 32.8267 10.8243 33.027 10.5012 33.4291C10.3285 33.6469 10.1958 33.8891 10.099 34.1383C9.92403 34.5986 9.85865 35.103 9.87734 35.5877C9.90302 36.2494 10.0762 36.6466 10.1409 36.7952C10.1487 36.8129 10.1549 36.8271 10.1591 36.8378C10.3245 37.1992 9.93699 37.2735 9.58352 36.885L9.58266 36.8842C9.29986 36.5798 9.11875 36.1162 9.03014 35.7044V35.7042C8.97784 35.4595 8.94434 35.1849 8.94434 34.8894C8.94434 34.5467 8.98951 34.1757 9.10286 33.7915L9.10297 33.7909L9.10308 33.7906C9.40965 32.7812 10.0987 32.0189 11.1457 31.6038C11.2122 31.5772 11.2861 31.5575 11.3554 31.5391C11.3868 31.5308 11.4172 31.5227 11.4455 31.5143L11.4446 31.5145C11.6209 31.461 12.2524 31.331 12.8944 31.4326C13.266 31.4911 13.6039 31.6162 13.8951 31.7811C14.1858 31.9457 14.4302 32.1501 14.6159 32.3694L14.6166 32.3704C14.9201 32.7212 15.149 33.2162 15.1083 33.6567L15.1082 33.6578C15.093 33.841 15.0132 34.1035 14.8509 34.1717C14.7905 34.1967 14.73 34.1834 14.6876 34.1411C14.6401 34.0938 14.6267 34.0264 14.6087 33.9355C14.5821 33.8017 14.5455 33.6172 14.3749 33.3717C14.2876 33.2458 14.1704 33.1139 14.0176 32.9904L14.0173 32.9902ZM13.8384 34.6346C13.7227 34.5414 13.669 34.4619 13.637 34.3394C13.5898 34.1164 13.6144 33.9868 13.8019 33.8529C13.8426 33.8246 13.881 33.8004 13.9152 33.7788C14.0025 33.7239 14.0626 33.6861 14.0629 33.6407C14.0694 33.5211 13.5864 33.3981 13.2487 33.7361C12.9684 34.0398 12.8799 34.6729 13.3272 35.1664C13.5155 35.373 13.7433 35.5199 13.9603 35.6599C14.3173 35.8901 14.6451 36.1014 14.7201 36.5287C14.736 36.626 14.7478 36.7344 14.7395 36.8414C14.741 36.9512 14.7089 37.1042 14.7006 37.1433L14.6988 37.1522C14.5491 37.8158 13.9297 38.4489 12.9086 38.2876L12.8642 38.2809C12.7013 38.2564 12.5956 38.2404 12.5622 38.289C12.4834 38.4004 12.9211 38.9096 13.7223 38.8912C14.5062 38.8743 15.2838 38.2775 15.5331 37.3805L15.5348 37.374C15.5464 37.3314 15.6099 37.0977 15.6155 36.8867C15.6296 36.7179 15.6176 36.5443 15.5867 36.3626C15.4341 35.5024 14.7677 35.1527 14.2658 34.8892C14.0956 34.8 13.9444 34.7206 13.8384 34.6346ZM40.4765 27.1055C40.5429 26.6736 40.8476 26.3633 41.1574 26.4124C41.4671 26.4616 41.6646 26.8516 41.5983 27.2835C41.532 27.7155 41.2271 28.0258 40.9174 27.9767C40.6076 27.9275 40.4102 27.5375 40.4765 27.1055ZM37.7538 27.6728C37.5835 27.9887 37.7908 28.4374 38.2169 28.6747C38.6429 28.9122 39.1264 28.8486 39.2967 28.5325C39.4669 28.2166 39.2596 27.768 38.8334 27.5306C38.4073 27.2933 37.924 27.3569 37.7538 27.6728Z" fill="#916D53"/>
<path d="M38.5015 24.6206C38.4952 24.1928 38.5452 23.486 38.8429 23.3545C38.8432 23.3544 38.843 23.3544 38.8435 23.3542C39.3521 23.1155 40.0256 24.8783 40.0565 26.4435C39.6546 26.1711 39.1823 26.0556 38.6966 26.1126C38.5744 25.6087 38.5159 25.134 38.5015 24.6206Z" fill="#5B453E"/>
</svg>
